<svg width="264" height="250" viewBox="0 0 264 250" fill="none" xmlns="http://www.w3.org/2000/svg">
<circle cx="131.5" cy="125" r="125" fill="#FFECEC"/>
<path d="M56.0338 154.484V155.592C52.9117 155.541 49.8218 155.637 46.7706 154.903C44.3452 154.316 41.9455 153.717 39.7781 152.421C38.3571 151.624 37.1373 150.512 36.2117 149.172C35.286 147.831 34.679 146.297 34.437 144.687C33.7871 141.23 33.8156 137.679 34.5208 134.233C35.2562 130.92 36.9914 128.045 39.991 126.286C43.7195 124.146 47.5899 122.193 51.3571 120.144C51.8544 119.929 52.3705 119.761 52.8988 119.641L53.1181 119.892C52.7569 120.388 52.3827 120.878 52.0408 121.387C50.6601 123.582 49.7466 126.037 49.3574 128.6C48.7865 131.98 48.6391 135.418 48.9187 138.835C49.2025 143.437 50.1314 147.897 53.1439 151.628C53.3503 151.88 53.5825 152.112 53.9825 152.55C53.3374 150.894 52.6923 149.527 52.2279 148.109C51.3778 145.61 50.8595 143.009 50.6862 140.375C50.6475 139.563 50.6217 138.744 50.5056 137.945C50.1345 134.704 50.2497 131.426 50.8475 128.219C51.4345 124.404 53.5632 121.323 56.3047 118.629C58.261 116.776 60.5592 115.32 63.0715 114.343C69.3351 111.765 75.6567 109.283 81.9074 106.647C88.253 103.993 94.3935 100.873 100.279 97.3145C105.852 93.9179 111.245 90.2248 116.444 86.3254C122.852 81.6219 128.89 76.4355 134.506 70.8117C135.839 69.3633 136.755 67.5816 137.157 65.6555C137.832 62.5826 139.272 59.7294 141.344 57.3605C143.344 55.1627 145.859 54.7373 148.543 54.9049C152.007 55.124 154.722 56.8836 156.974 59.481C161.276 64.4438 164.166 70.2187 166.65 76.187C168.127 79.6739 169.449 83.2317 170.669 86.8152C171.765 90.0378 172.694 93.2605 173.565 96.554C174.513 100.118 175.423 103.695 176.145 107.305C176.752 110.334 176.997 113.421 177.5 116.47C178.455 122.703 178.886 129.004 178.79 135.309C178.79 140.289 178.39 145.262 177.597 150.178C177.125 153.223 176.389 156.22 175.397 159.137C174.698 161.255 173.64 163.237 172.268 164.996C171.22 166.388 169.701 167.351 167.994 167.707C166.288 168.062 164.51 167.786 162.992 166.929C160.683 165.64 158.477 164.235 156.167 162.933C152.861 161.098 149.319 159.724 145.64 158.847C143.137 158.203 140.666 157.494 138.151 156.914C135.635 156.334 132.99 155.94 130.41 155.476C128.417 155.122 126.43 154.735 124.43 154.445C121.624 154.039 118.799 153.717 115.986 153.349C113.819 153.072 111.658 152.666 109.484 152.531C105.775 152.305 102.059 152.228 98.3437 152.144C97.4341 152.144 96.5182 152.37 95.6086 152.402C95.1985 152.411 94.8019 152.55 94.4761 152.799C94.1503 153.048 93.9121 153.395 93.796 153.788C93.1664 155.139 93.014 156.663 93.3638 158.112C94.2024 161.232 95.0668 164.338 95.9441 167.452C96.0843 167.881 96.1816 168.324 96.2343 168.773C96.3346 170.557 97.0662 172.247 98.2985 173.542C99.4274 174.773 100.679 175.927 101.021 177.667C101.236 178.384 101.327 179.131 101.292 179.878C101.194 180.506 101.228 181.147 101.392 181.761C101.557 182.375 101.848 182.947 102.246 183.442C102.891 184.383 103.607 185.318 104.259 186.278C105.33 187.851 105.923 189.501 105.149 191.434C105.032 191.923 104.89 192.404 104.723 192.878C104.001 194.219 104.556 195.321 105.272 196.41C105.33 196.494 105.394 196.578 105.459 196.655C107.123 198.762 106.91 200.522 103.691 200.915C99.6895 201.402 95.6298 200.846 91.9059 199.304C89.042 198.064 86.7425 195.803 85.4553 192.962C83.7007 189.456 82.7589 185.685 81.8945 181.876C80.7527 176.81 79.6303 171.718 77.5855 166.917C76.5833 164.54 75.1706 162.359 73.4119 160.471C71.9188 158.857 69.971 157.734 67.8256 157.249C66.7987 156.97 65.7416 156.816 64.6777 156.791C61.5362 156.881 58.627 156.527 56.0338 154.484ZM151.233 156.069C150.659 154.78 150.259 153.865 149.826 152.956C148.291 149.734 146.601 146.511 145.234 143.217C142.9 137.782 140.975 132.181 139.473 126.46C138.463 122.541 137.525 118.605 136.661 114.652C136.106 112.074 135.706 109.496 135.319 106.866C134.798 104.023 134.436 101.152 134.235 98.2684C133.997 91.6878 133.59 85.0879 134.945 78.2882C134.532 78.5847 134.3 78.7265 134.087 78.9327C130.991 81.7815 128.043 84.8172 124.772 87.4533C118.683 92.371 111.832 96.1673 105.175 100.247C100.247 103.27 95.299 106.254 90.7964 109.915C86.6422 113.318 84.7973 117.649 84.6296 122.928C84.5552 125.89 84.839 128.851 85.4746 131.745C86.4422 136.334 88.4419 140.362 91.9704 143.52C93.7231 145.168 95.9251 146.261 98.2985 146.659C101.563 147.123 104.872 147.349 108.175 147.529C113.335 147.819 118.496 148.058 123.656 148.773C127.385 149.289 131.029 150.062 134.693 150.887C138.842 151.835 142.934 153.016 146.949 154.426C148.272 154.87 149.568 155.418 151.233 156.069ZM139.054 95.555C141.124 112.706 143.705 129.386 150.155 145.28C150.632 144.345 150.987 143.353 151.213 142.328C152.098 138.057 152.556 133.709 152.581 129.347C152.581 124.836 152.394 120.401 151.188 116.077C150.296 112.876 149.219 109.729 147.962 106.654C146.785 103.68 145.076 100.945 142.918 98.5842C141.886 97.4885 140.912 96.2962 139.054 95.555ZM44.6032 128.426L44.2807 128.342C44.1323 128.58 43.8872 128.799 43.8485 129.057C43.6206 130.501 43.427 131.951 43.2679 133.408C42.7693 137.196 43.1016 141.047 44.242 144.693C44.887 146.556 45.5321 148.406 46.3449 150.211C46.7771 151.197 47.0351 151.177 48.0866 150.604C47.6286 149.276 47.1061 147.961 46.719 146.608C45.833 143.857 45.3062 141.004 45.1515 138.119C45.087 135.174 44.8999 132.228 44.758 129.283C44.7228 128.988 44.6711 128.695 44.6032 128.406V128.426ZM42.023 149.862C41.8165 148.773 41.7327 147.929 41.494 147.149C40.5199 143.926 39.3395 140.704 39.6233 137.21C39.7523 135.644 39.7007 134.059 39.7007 132.486C39.7007 131.958 39.6104 131.423 39.5394 130.649C39.0943 130.972 38.7654 131.081 38.688 131.294C38.2823 132.155 37.9979 133.068 37.8429 134.007C37.7204 135.885 37.7204 137.769 37.8429 139.647C37.9288 140.958 38.1625 142.255 38.5396 143.514C38.9273 144.821 39.4438 146.086 40.0813 147.291C40.4941 148.09 40.7199 149.147 42.023 149.843V149.862Z" fill="#EF5A5A"/>
<path d="M213.585 163.359C213.965 162.186 214.269 160.981 214.746 159.846C216.562 155.55 217.966 151.091 218.939 146.53C219.642 143.256 220.597 140.001 220.874 136.688C221.358 131.326 221.519 125.918 221.558 120.537C221.575 116.058 221.36 111.581 220.913 107.124C220.47 103.394 219.824 99.6914 218.978 96.0319C218.332 92.9124 217.481 89.8252 216.52 86.7895C214.735 81.0293 212.312 75.4864 209.295 70.2639C206.359 65.0363 202.565 60.3389 198.071 56.3679C196.42 54.95 194.568 53.7899 192.827 52.4621C192.105 51.9561 191.472 51.3331 190.956 50.6188C191.264 50.5702 191.577 50.5702 191.885 50.6188C195.521 51.908 199.044 53.4946 202.419 55.3625C207.956 58.3942 212.908 62.3883 217.042 67.1573C220.897 71.6796 224.03 76.7688 226.331 82.2456C228.237 86.4524 229.619 90.8768 230.447 95.4196C230.869 98.3389 231.549 107.051 231.5 110C231.5 116.153 231.219 114.838 231 121C230.837 122.92 230.177 126.529 229.666 128.387C228.418 134.292 226.556 140.051 224.112 145.57C222.319 149.476 220.242 153.253 218.165 157.023C217.075 159.015 215.733 160.89 214.52 162.792C214.347 163.095 214.194 163.409 214.062 163.733L213.585 163.359Z" fill="#EF5A5A"/>
<path d="M180.074 65.4621C181.944 65.3139 183.215 66.1969 184.512 66.7512C188.35 68.3734 191.966 70.4787 195.271 73.016C198.914 75.9407 202.109 79.3824 204.754 83.2317C207.212 86.8243 209.186 90.7251 210.624 94.8331C211.671 97.645 212.275 100.602 212.417 103.599C212.602 107.5 212.929 109.927 213 114C213.043 118.495 212.414 124.779 211.437 129.167C209.682 137.397 206.212 144.913 201.825 152.041C201.316 152.866 200.812 153.685 200.277 154.484C199.974 154.935 199.632 155.341 199.264 155.773L198.897 155.618C199.084 154.839 199.314 154.071 199.587 153.317C201.274 149.349 202.57 145.226 203.457 141.007C205.126 133.185 205.705 125.171 205.18 117.192C204.886 112.22 204.196 107.281 203.115 102.419C201.942 97.1236 200.253 91.9556 198.071 86.9892C195.452 81.1885 192.265 75.7101 187.492 71.3531C185.634 69.6515 183.525 68.2207 181.531 66.661C181.119 66.3 180.693 65.9584 180.074 65.4621Z" fill="#EF5A5A"/>
<path d="M170.469 78.0626C171.224 78.1817 171.967 78.3694 172.688 78.6234C177.848 80.8921 182.609 83.67 186.46 87.8852C190.917 92.7131 193.992 98.6505 195.362 105.075C196.518 110.396 196.859 115.861 196.374 121.284C195.917 126.747 194.674 132.115 192.685 137.223C190.914 141.649 188.687 145.878 186.04 149.843C185.802 150.217 185.531 150.572 185.273 150.932L184.873 150.649C185.434 149.05 185.969 147.426 186.569 145.86C188.357 141.372 189.361 136.611 189.537 131.784C189.64 127.562 189.846 123.347 189.917 119.125C189.988 114.465 189.066 109.947 187.866 105.461C186.74 101.003 185.131 96.6805 183.067 92.5708C180.58 87.7709 177.107 83.5497 172.875 80.1831C172.075 79.5386 171.165 79.0294 170.294 78.4558L170.469 78.0626Z" fill="#EF5A5A"/>
</svg>
