<svg width="346" height="139" viewBox="0 0 346 139" fill="none" xmlns="http://www.w3.org/2000/svg">
<rect x="0.5" y="0.5" width="345" height="138" rx="7.5" fill="white" stroke="#EF5A5A" stroke-dasharray="2 4 6 8"/>
<rect x="16" y="20" width="314" height="100" rx="8" fill="#EF5A5A"/>
<line x1="196.5" y1="20" x2="196.5" y2="120" stroke="white" stroke-dasharray="2 2"/>
<path d="M246.388 56.02C246.508 56.02 246.604 56.068 246.676 56.164C246.772 56.236 246.82 56.332 246.82 56.452V60.088C246.82 60.208 246.772 60.316 246.676 60.412C246.604 60.484 246.508 60.52 246.388 60.52H244.84C244.72 60.52 244.66 60.58 244.66 60.7V66.568C244.66 66.688 244.612 66.796 244.516 66.892C244.444 66.964 244.348 67 244.228 67H240.016C239.896 67 239.788 66.964 239.692 66.892C239.62 66.796 239.584 66.688 239.584 66.568V60.7C239.584 60.58 239.524 60.52 239.404 60.52H228.352C228.232 60.52 228.124 60.484 228.028 60.412C227.956 60.316 227.92 60.208 227.92 60.088V57.208C227.92 57.064 227.956 56.884 228.028 56.668L234.508 42.124C234.604 41.908 234.772 41.8 235.012 41.8H239.512C239.68 41.8 239.788 41.848 239.836 41.944C239.908 42.016 239.908 42.136 239.836 42.304L233.824 55.804C233.8 55.852 233.8 55.9 233.824 55.948C233.848 55.996 233.884 56.02 233.932 56.02H239.404C239.524 56.02 239.584 55.96 239.584 55.84V51.376C239.584 51.256 239.62 51.16 239.692 51.088C239.788 50.992 239.896 50.944 240.016 50.944H244.228C244.348 50.944 244.444 50.992 244.516 51.088C244.612 51.16 244.66 51.256 244.66 51.376V55.84C244.66 55.96 244.72 56.02 244.84 56.02H246.388ZM259.503 67.396C256.863 67.396 254.775 66.664 253.239 65.2C251.703 63.712 250.935 61.696 250.935 59.152V49.648C250.935 47.152 251.703 45.172 253.239 43.708C254.775 42.244 256.863 41.512 259.503 41.512C262.143 41.512 264.231 42.244 265.767 43.708C267.327 45.172 268.107 47.152 268.107 49.648V59.152C268.107 61.696 267.327 63.712 265.767 65.2C264.231 66.664 262.143 67.396 259.503 67.396ZM259.503 63.04C260.583 63.04 261.435 62.716 262.059 62.068C262.707 61.396 263.031 60.508 263.031 59.404V49.504C263.031 48.4 262.707 47.524 262.059 46.876C261.435 46.204 260.583 45.868 259.503 45.868C258.447 45.868 257.595 46.204 256.947 46.876C256.323 47.524 256.011 48.4 256.011 49.504V59.404C256.011 60.508 256.323 61.396 256.947 62.068C257.595 62.716 258.447 63.04 259.503 63.04ZM278.517 52.852C277.461 52.852 276.489 52.6 275.601 52.096C274.737 51.592 274.041 50.908 273.513 50.044C273.009 49.156 272.757 48.196 272.757 47.164C272.757 46.132 273.009 45.184 273.513 44.32C274.041 43.456 274.737 42.772 275.601 42.268C276.489 41.74 277.461 41.476 278.517 41.476C279.549 41.476 280.497 41.74 281.361 42.268C282.225 42.772 282.909 43.456 283.413 44.32C283.941 45.184 284.205 46.132 284.205 47.164C284.205 48.196 283.953 49.156 283.449 50.044C282.945 50.908 282.249 51.592 281.361 52.096C280.497 52.6 279.549 52.852 278.517 52.852ZM277.113 67C276.945 67 276.837 66.952 276.789 66.856C276.741 66.76 276.753 66.64 276.825 66.496L290.397 42.088C290.517 41.896 290.697 41.8 290.937 41.8H293.601C293.769 41.8 293.877 41.848 293.925 41.944C293.973 42.04 293.961 42.16 293.889 42.304L280.353 66.712C280.233 66.904 280.053 67 279.813 67H277.113ZM278.517 49.9C279.261 49.9 279.885 49.636 280.389 49.108C280.917 48.58 281.181 47.932 281.181 47.164C281.181 46.42 280.917 45.784 280.389 45.256C279.885 44.728 279.261 44.464 278.517 44.464C277.749 44.464 277.101 44.728 276.573 45.256C276.045 45.784 275.781 46.42 275.781 47.164C275.781 47.932 276.045 48.58 276.573 49.108C277.101 49.636 277.749 49.9 278.517 49.9ZM292.557 67.324C291.525 67.324 290.565 67.072 289.677 66.568C288.813 66.04 288.117 65.344 287.589 64.48C287.085 63.592 286.833 62.632 286.833 61.6C286.833 60.568 287.085 59.62 287.589 58.756C288.117 57.892 288.813 57.208 289.677 56.704C290.565 56.2 291.525 55.948 292.557 55.948C293.589 55.948 294.537 56.2 295.401 56.704C296.289 57.208 296.985 57.892 297.489 58.756C298.017 59.62 298.281 60.568 298.281 61.6C298.281 62.632 298.017 63.592 297.489 64.48C296.985 65.344 296.289 66.04 295.401 66.568C294.537 67.072 293.589 67.324 292.557 67.324ZM292.557 64.336C293.301 64.336 293.937 64.072 294.465 63.544C294.993 63.016 295.257 62.368 295.257 61.6C295.257 60.856 294.993 60.22 294.465 59.692C293.937 59.164 293.301 58.9 292.557 58.9C291.813 58.9 291.177 59.164 290.649 59.692C290.121 60.196 289.857 60.832 289.857 61.6C289.857 62.368 290.109 63.016 290.613 63.544C291.141 64.072 291.789 64.336 292.557 64.336Z" fill="white"/>
<path d="M228.591 91.16C227.551 91.16 226.638 90.96 225.851 90.56C225.065 90.1467 224.458 89.5733 224.031 88.84C223.605 88.1067 223.391 87.26 223.391 86.3V81.68C223.391 80.72 223.605 79.8733 224.031 79.14C224.458 78.4067 225.065 77.84 225.851 77.44C226.638 77.04 227.551 76.84 228.591 76.84C229.618 76.84 230.518 77.0333 231.291 77.42C232.078 77.7933 232.685 78.3333 233.111 79.04C233.551 79.7333 233.771 80.54 233.771 81.46C233.771 81.58 233.691 81.6533 233.531 81.68L231.191 81.82H231.151C231.018 81.82 230.951 81.7467 230.951 81.6C230.951 80.8933 230.731 80.3267 230.291 79.9C229.865 79.4733 229.298 79.26 228.591 79.26C227.871 79.26 227.291 79.4733 226.851 79.9C226.425 80.3267 226.211 80.8933 226.211 81.6V86.42C226.211 87.1133 226.425 87.6733 226.851 88.1C227.291 88.5267 227.871 88.74 228.591 88.74C229.298 88.74 229.865 88.5267 230.291 88.1C230.731 87.6733 230.951 87.1133 230.951 86.42C230.951 86.2733 231.031 86.2 231.191 86.2L233.531 86.3C233.598 86.3 233.651 86.32 233.691 86.36C233.745 86.4 233.771 86.4467 233.771 86.5C233.771 87.42 233.551 88.2333 233.111 88.94C232.685 89.6467 232.078 90.1933 231.291 90.58C230.518 90.9667 229.618 91.16 228.591 91.16ZM240.93 91.16C239.81 91.16 238.85 90.8667 238.05 90.28C237.25 89.6933 236.703 88.8933 236.41 87.88C236.223 87.2533 236.13 86.5733 236.13 85.84C236.13 85.0533 236.223 84.3467 236.41 83.72C236.716 82.7333 237.27 81.96 238.07 81.4C238.87 80.84 239.83 80.56 240.95 80.56C242.043 80.56 242.976 80.84 243.75 81.4C244.523 81.9467 245.07 82.7133 245.39 83.7C245.603 84.3667 245.71 85.0667 245.71 85.8C245.71 86.52 245.616 87.1933 245.43 87.82C245.136 88.86 244.59 89.68 243.79 90.28C243.003 90.8667 242.05 91.16 240.93 91.16ZM240.93 88.74C241.37 88.74 241.743 88.6067 242.05 88.34C242.356 88.0733 242.576 87.7067 242.71 87.24C242.816 86.8133 242.87 86.3467 242.87 85.84C242.87 85.28 242.816 84.8067 242.71 84.42C242.563 83.9667 242.336 83.6133 242.03 83.36C241.723 83.1067 241.35 82.98 240.91 82.98C240.456 82.98 240.076 83.1067 239.77 83.36C239.476 83.6133 239.263 83.9667 239.13 84.42C239.023 84.74 238.97 85.2133 238.97 85.84C238.97 86.44 239.016 86.9067 239.11 87.24C239.243 87.7067 239.463 88.0733 239.77 88.34C240.09 88.6067 240.476 88.74 240.93 88.74ZM254.272 80.96C254.272 80.8933 254.292 80.84 254.332 80.8C254.386 80.7467 254.446 80.72 254.512 80.72H256.852C256.919 80.72 256.972 80.7467 257.012 80.8C257.066 80.84 257.092 80.8933 257.092 80.96V90.76C257.092 90.8267 257.066 90.8867 257.012 90.94C256.972 90.98 256.919 91 256.852 91H254.512C254.446 91 254.386 90.98 254.332 90.94C254.292 90.8867 254.272 90.8267 254.272 90.76V90.08C254.272 90.04 254.259 90.02 254.232 90.02C254.206 90.0067 254.179 90.02 254.152 90.06C253.619 90.78 252.792 91.14 251.672 91.14C250.659 91.14 249.826 90.8333 249.172 90.22C248.519 89.6067 248.192 88.7467 248.192 87.64V80.96C248.192 80.8933 248.212 80.84 248.252 80.8C248.306 80.7467 248.366 80.72 248.432 80.72H250.752C250.819 80.72 250.872 80.7467 250.912 80.8C250.966 80.84 250.992 80.8933 250.992 80.96V86.94C250.992 87.4733 251.132 87.9067 251.412 88.24C251.706 88.5733 252.106 88.74 252.612 88.74C253.066 88.74 253.439 88.6067 253.732 88.34C254.026 88.06 254.206 87.7 254.272 87.26V80.96ZM269.101 83.48C269.341 84.16 269.461 84.96 269.461 85.88C269.461 86.8 269.334 87.6333 269.081 88.38C268.774 89.2333 268.288 89.9133 267.621 90.42C266.968 90.9133 266.154 91.16 265.181 91.16C264.221 91.16 263.474 90.8267 262.941 90.16C262.914 90.12 262.888 90.1067 262.861 90.12C262.834 90.1333 262.821 90.16 262.821 90.2V94.48C262.821 94.5467 262.794 94.6 262.741 94.64C262.701 94.6933 262.648 94.72 262.581 94.72H260.241C260.174 94.72 260.114 94.6933 260.061 94.64C260.021 94.6 260.001 94.5467 260.001 94.48V80.96C260.001 80.8933 260.021 80.84 260.061 80.8C260.114 80.7467 260.174 80.72 260.241 80.72H262.581C262.648 80.72 262.701 80.7467 262.741 80.8C262.794 80.84 262.821 80.8933 262.821 80.96V81.62C262.821 81.66 262.834 81.6867 262.861 81.7C262.888 81.7 262.914 81.6867 262.941 81.66C263.501 80.9267 264.274 80.56 265.261 80.56C266.181 80.56 266.974 80.82 267.641 81.34C268.321 81.8467 268.808 82.56 269.101 83.48ZM266.041 87.96C266.374 87.44 266.541 86.7333 266.541 85.84C266.541 85 266.401 84.3333 266.121 83.84C265.814 83.2667 265.321 82.98 264.641 82.98C264.028 82.98 263.568 83.2667 263.261 83.84C262.981 84.32 262.841 84.9933 262.841 85.86C262.841 86.7533 262.988 87.4467 263.281 87.94C263.588 88.4733 264.041 88.74 264.641 88.74C265.241 88.74 265.708 88.48 266.041 87.96ZM276.519 91.16C275.399 91.16 274.439 90.8667 273.639 90.28C272.839 89.6933 272.293 88.8933 271.999 87.88C271.813 87.2533 271.719 86.5733 271.719 85.84C271.719 85.0533 271.813 84.3467 271.999 83.72C272.306 82.7333 272.859 81.96 273.659 81.4C274.459 80.84 275.419 80.56 276.539 80.56C277.633 80.56 278.566 80.84 279.339 81.4C280.113 81.9467 280.659 82.7133 280.979 83.7C281.193 84.3667 281.299 85.0667 281.299 85.8C281.299 86.52 281.206 87.1933 281.019 87.82C280.726 88.86 280.179 89.68 279.379 90.28C278.593 90.8667 277.639 91.16 276.519 91.16ZM276.519 88.74C276.959 88.74 277.333 88.6067 277.639 88.34C277.946 88.0733 278.166 87.7067 278.299 87.24C278.406 86.8133 278.459 86.3467 278.459 85.84C278.459 85.28 278.406 84.8067 278.299 84.42C278.153 83.9667 277.926 83.6133 277.619 83.36C277.313 83.1067 276.939 82.98 276.499 82.98C276.046 82.98 275.666 83.1067 275.359 83.36C275.066 83.6133 274.853 83.9667 274.719 84.42C274.613 84.74 274.559 85.2133 274.559 85.84C274.559 86.44 274.606 86.9067 274.699 87.24C274.833 87.7067 275.053 88.0733 275.359 88.34C275.679 88.6067 276.066 88.74 276.519 88.74ZM289.222 80.56C290.289 80.56 291.149 80.8867 291.802 81.54C292.456 82.1933 292.782 83.08 292.782 84.2V90.76C292.782 90.8267 292.756 90.8867 292.702 90.94C292.662 90.98 292.609 91 292.542 91H290.202C290.136 91 290.076 90.98 290.022 90.94C289.982 90.8867 289.962 90.8267 289.962 90.76V84.78C289.962 84.2467 289.809 83.8133 289.502 83.48C289.209 83.1467 288.816 82.98 288.322 82.98C287.829 82.98 287.429 83.1467 287.122 83.48C286.829 83.8133 286.682 84.2467 286.682 84.78V90.76C286.682 90.8267 286.656 90.8867 286.602 90.94C286.562 90.98 286.509 91 286.442 91H284.102C284.036 91 283.976 90.98 283.922 90.94C283.882 90.8867 283.862 90.8267 283.862 90.76V80.96C283.862 80.8933 283.882 80.84 283.922 80.8C283.976 80.7467 284.036 80.72 284.102 80.72H286.442C286.509 80.72 286.562 80.7467 286.602 80.8C286.656 80.84 286.682 80.8933 286.682 80.96V81.66C286.682 81.7 286.696 81.7267 286.722 81.74C286.749 81.7533 286.769 81.7467 286.782 81.72C287.329 80.9467 288.142 80.56 289.222 80.56ZM299.65 91.14C298.756 91.14 297.976 91.0133 297.31 90.76C296.643 90.5067 296.123 90.1533 295.75 89.7C295.39 89.2467 295.21 88.7333 295.21 88.16V87.96C295.21 87.8933 295.23 87.84 295.27 87.8C295.323 87.7467 295.383 87.72 295.45 87.72H297.67C297.736 87.72 297.79 87.7467 297.83 87.8C297.883 87.84 297.91 87.8933 297.91 87.96V87.98C297.91 88.2733 298.07 88.5267 298.39 88.74C298.723 88.94 299.136 89.04 299.63 89.04C300.083 89.04 300.45 88.9533 300.73 88.78C301.01 88.5933 301.15 88.3667 301.15 88.1C301.15 87.86 301.03 87.68 300.79 87.56C300.55 87.44 300.156 87.3133 299.61 87.18C298.983 87.02 298.49 86.8667 298.13 86.72C297.276 86.4267 296.596 86.0667 296.09 85.64C295.583 85.2133 295.33 84.6 295.33 83.8C295.33 82.8133 295.71 82.0333 296.47 81.46C297.243 80.8733 298.263 80.58 299.53 80.58C300.383 80.58 301.13 80.72 301.77 81C302.41 81.2667 302.903 81.6467 303.25 82.14C303.61 82.6333 303.79 83.1933 303.79 83.82C303.79 83.8867 303.763 83.9467 303.71 84C303.67 84.04 303.616 84.06 303.55 84.06H301.41C301.343 84.06 301.283 84.04 301.23 84C301.19 83.9467 301.17 83.8867 301.17 83.82C301.17 83.5267 301.016 83.28 300.71 83.08C300.416 82.88 300.023 82.78 299.53 82.78C299.09 82.78 298.73 82.86 298.45 83.02C298.17 83.18 298.03 83.4 298.03 83.68C298.03 83.9467 298.163 84.1467 298.43 84.28C298.71 84.4133 299.17 84.5533 299.81 84.7C299.956 84.74 300.123 84.7867 300.31 84.84C300.496 84.88 300.696 84.9333 300.91 85C301.856 85.28 302.603 85.64 303.15 86.08C303.696 86.52 303.97 87.16 303.97 88C303.97 88.9867 303.576 89.76 302.79 90.32C302.016 90.8667 300.97 91.14 299.65 91.14Z" fill="white"/>
<path d="M51.9018 38.92C51.9018 38.7067 52.0084 38.6 52.2218 38.6H54.6538C54.8671 38.6 54.9738 38.7067 54.9738 38.92V60.68C54.9738 60.8933 54.8671 61 54.6538 61H52.3178C52.1684 61 52.0404 60.9253 51.9338 60.776L41.9178 44.424C41.8964 44.36 41.8644 44.3387 41.8218 44.36C41.7791 44.36 41.7578 44.392 41.7578 44.456L41.7898 60.68C41.7898 60.8933 41.6831 61 41.4698 61H39.0378C38.8244 61 38.7178 60.8933 38.7178 60.68V38.92C38.7178 38.7067 38.8244 38.6 39.0378 38.6H41.4058C41.5551 38.6 41.6831 38.6747 41.7898 38.824L51.7738 55.176C51.7951 55.24 51.8271 55.272 51.8698 55.272C51.9124 55.2507 51.9338 55.208 51.9338 55.144L51.9018 38.92ZM66.521 61.256C64.9423 61.256 63.5663 60.8613 62.393 60.072C61.2197 59.2613 60.3983 58.1413 59.929 56.712C59.545 55.56 59.353 54.2587 59.353 52.808C59.353 51.2933 59.5343 50.0133 59.897 48.968C60.3663 47.56 61.1877 46.4613 62.361 45.672C63.5343 44.8613 64.9317 44.456 66.553 44.456C68.089 44.456 69.4223 44.8613 70.553 45.672C71.705 46.4613 72.5263 47.5493 73.017 48.936C73.401 50.024 73.593 51.304 73.593 52.776C73.593 54.2693 73.401 55.5813 73.017 56.712C72.5477 58.1413 71.737 59.2613 70.585 60.072C69.433 60.8613 68.0783 61.256 66.521 61.256ZM66.521 58.6C67.3743 58.6 68.121 58.3653 68.761 57.896C69.401 57.4053 69.8597 56.7227 70.137 55.848C70.3717 55.0373 70.489 54.0347 70.489 52.84C70.489 51.6453 70.3823 50.6533 70.169 49.864C69.8917 48.9893 69.433 48.3173 68.793 47.848C68.153 47.3573 67.3743 47.112 66.457 47.112C65.5823 47.112 64.825 47.3573 64.185 47.848C63.545 48.3173 63.0863 48.9893 62.809 49.864C62.5743 50.6107 62.457 51.6027 62.457 52.84C62.457 54.0773 62.5743 55.08 62.809 55.848C63.065 56.7227 63.513 57.4053 64.153 57.896C64.8143 58.3653 65.6037 58.6 66.521 58.6ZM85.3658 46.92C85.3658 47.1333 85.2591 47.24 85.0458 47.24H81.5898C81.5044 47.24 81.4618 47.2827 81.4618 47.368V55.848C81.4618 56.744 81.6644 57.3947 82.0698 57.8C82.4751 58.184 83.1044 58.376 83.9578 58.376H84.8858C85.0991 58.376 85.2058 58.4827 85.2058 58.696V60.68C85.2058 60.8933 85.0991 61 84.8858 61C84.2031 61.0427 83.7124 61.064 83.4138 61.064C81.7924 61.064 80.5658 60.776 79.7338 60.2C78.9231 59.6027 78.5178 58.5147 78.5178 56.936V47.368C78.5178 47.2827 78.4751 47.24 78.3898 47.24H76.4378C76.2244 47.24 76.1178 47.1333 76.1178 46.92V45.032C76.1178 44.8187 76.2244 44.712 76.4378 44.712H78.3898C78.4751 44.712 78.5178 44.6693 78.5178 44.584V40.808C78.5178 40.5947 78.6244 40.488 78.8378 40.488H81.1418C81.3551 40.488 81.4618 40.5947 81.4618 40.808V44.584C81.4618 44.6693 81.5044 44.712 81.5898 44.712H85.0458C85.2591 44.712 85.3658 44.8187 85.3658 45.032V46.92Z" fill="white"/>
<path d="M52.5834 101C52.3914 101 52.2634 100.915 52.1994 100.744L51.0474 97C51.026 96.936 50.9834 96.904 50.9194 96.904H41.9274C41.8634 96.904 41.8207 96.936 41.7994 97L40.6474 100.744C40.5834 100.915 40.4554 101 40.2634 101H37.6714C37.4367 101 37.3514 100.883 37.4154 100.648L44.4234 78.856C44.4874 78.6853 44.6154 78.6 44.8074 78.6H48.0074C48.1994 78.6 48.3274 78.6853 48.3914 78.856L55.4634 100.648L55.4954 100.776C55.4954 100.925 55.3994 101 55.2074 101H52.5834ZM42.5994 94.312C42.578 94.3547 42.578 94.3973 42.5994 94.44C42.642 94.4613 42.6847 94.472 42.7274 94.472H50.0874C50.13 94.472 50.162 94.4613 50.1834 94.44C50.226 94.3973 50.2367 94.3547 50.2154 94.312L46.5034 82.44C46.482 82.3973 46.45 82.376 46.4074 82.376C46.3647 82.376 46.3327 82.3973 46.3114 82.44L42.5994 94.312ZM61.8561 101C61.6641 101 61.5361 100.915 61.4721 100.744L56.2561 85.064L56.2241 84.936C56.2241 84.7867 56.3201 84.712 56.5121 84.712H59.2001C59.3921 84.712 59.5201 84.7973 59.5841 84.968L63.1041 96.552C63.1255 96.5947 63.1575 96.616 63.2001 96.616C63.2428 96.616 63.2748 96.5947 63.2961 96.552L66.7841 84.968C66.8481 84.7973 66.9761 84.712 67.1681 84.712L69.8561 84.744C70.0908 84.744 70.1761 84.8613 70.1121 85.096L64.9281 100.744C64.8641 100.915 64.7361 101 64.5441 101H61.8561ZM78.7076 84.456C80.009 84.456 81.1396 84.6907 82.0996 85.16C83.081 85.608 83.8276 86.248 84.3396 87.08C84.873 87.8907 85.1396 88.8187 85.1396 89.864V100.68C85.1396 100.893 85.033 101 84.8196 101H82.3876C82.1743 101 82.0676 100.893 82.0676 100.68V99.528C82.0676 99.4213 82.0143 99.4 81.9076 99.464C81.353 100.04 80.6703 100.488 79.8596 100.808C79.0703 101.107 78.185 101.256 77.2036 101.256C75.625 101.256 74.313 100.861 73.2676 100.072C72.2436 99.2613 71.7316 98.0453 71.7316 96.424C71.7316 94.76 72.3076 93.4587 73.4596 92.52C74.633 91.56 76.265 91.08 78.3556 91.08H81.9396C82.025 91.08 82.0676 91.0373 82.0676 90.952V90.088C82.0676 89.1493 81.7903 88.424 81.2356 87.912C80.7023 87.3787 79.881 87.112 78.7716 87.112C77.8756 87.112 77.1396 87.2933 76.5636 87.656C76.009 87.9973 75.6676 88.4667 75.5396 89.064C75.4756 89.2773 75.3476 89.3733 75.1556 89.352L72.5636 89C72.3503 88.9573 72.2543 88.872 72.2756 88.744C72.4463 87.4853 73.1183 86.4613 74.2916 85.672C75.465 84.8613 76.937 84.456 78.7076 84.456ZM77.8756 98.664C79.0063 98.664 79.9876 98.3653 80.8196 97.768C81.6516 97.1707 82.0676 96.4133 82.0676 95.496V93.608C82.0676 93.5227 82.025 93.48 81.9396 93.48H78.9316C77.673 93.48 76.6703 93.7253 75.9236 94.216C75.177 94.7067 74.8036 95.3893 74.8036 96.264C74.8036 97.0533 75.081 97.6507 75.6356 98.056C76.2116 98.4613 76.9583 98.664 77.8756 98.664ZM91.1429 82.152C90.5455 82.152 90.0549 81.96 89.6709 81.576C89.2869 81.192 89.0949 80.7013 89.0949 80.104C89.0949 79.5067 89.2869 79.016 89.6709 78.632C90.0549 78.248 90.5455 78.056 91.1429 78.056C91.7402 78.056 92.2309 78.248 92.6149 78.632C92.9989 79.016 93.1909 79.5067 93.1909 80.104C93.1909 80.7013 92.9989 81.192 92.6149 81.576C92.2309 81.96 91.7402 82.152 91.1429 82.152ZM89.8629 100.968C89.6495 100.968 89.5429 100.861 89.5429 100.648V85.032C89.5429 84.8187 89.6495 84.712 89.8629 84.712H92.2949C92.5082 84.712 92.6149 84.8187 92.6149 85.032V100.648C92.6149 100.861 92.5082 100.968 92.2949 100.968H89.8629ZM97.7631 101C97.5498 101 97.4431 100.893 97.4431 100.68V78.92C97.4431 78.7067 97.5498 78.6 97.7631 78.6H100.195C100.408 78.6 100.515 78.7067 100.515 78.92V100.68C100.515 100.893 100.408 101 100.195 101H97.7631ZM110.926 84.456C112.228 84.456 113.358 84.6907 114.318 85.16C115.3 85.608 116.046 86.248 116.558 87.08C117.092 87.8907 117.358 88.8187 117.358 89.864V100.68C117.358 100.893 117.252 101 117.038 101H114.606C114.393 101 114.286 100.893 114.286 100.68V99.528C114.286 99.4213 114.233 99.4 114.126 99.464C113.572 100.04 112.889 100.488 112.078 100.808C111.289 101.107 110.404 101.256 109.422 101.256C107.844 101.256 106.532 100.861 105.486 100.072C104.462 99.2613 103.95 98.0453 103.95 96.424C103.95 94.76 104.526 93.4587 105.678 92.52C106.852 91.56 108.484 91.08 110.574 91.08H114.158C114.244 91.08 114.286 91.0373 114.286 90.952V90.088C114.286 89.1493 114.009 88.424 113.454 87.912C112.921 87.3787 112.1 87.112 110.99 87.112C110.094 87.112 109.358 87.2933 108.782 87.656C108.228 87.9973 107.886 88.4667 107.758 89.064C107.694 89.2773 107.566 89.3733 107.374 89.352L104.782 89C104.569 88.9573 104.473 88.872 104.494 88.744C104.665 87.4853 105.337 86.4613 106.51 85.672C107.684 84.8613 109.156 84.456 110.926 84.456ZM110.094 98.664C111.225 98.664 112.206 98.3653 113.038 97.768C113.87 97.1707 114.286 96.4133 114.286 95.496V93.608C114.286 93.5227 114.244 93.48 114.158 93.48H111.15C109.892 93.48 108.889 93.7253 108.142 94.216C107.396 94.7067 107.022 95.3893 107.022 96.264C107.022 97.0533 107.3 97.6507 107.854 98.056C108.43 98.4613 109.177 98.664 110.094 98.664ZM134.658 88.936C134.999 90.024 135.17 91.3147 135.17 92.808C135.17 94.408 134.967 95.7733 134.562 96.904C134.092 98.2907 133.346 99.368 132.322 100.136C131.319 100.883 130.05 101.256 128.514 101.256C127.767 101.256 127.074 101.107 126.434 100.808C125.794 100.509 125.239 100.093 124.77 99.56C124.727 99.5173 124.684 99.5067 124.642 99.528C124.62 99.5493 124.61 99.5813 124.61 99.624V100.68C124.61 100.893 124.503 101 124.29 101H121.858C121.644 101 121.538 100.893 121.538 100.68V78.92C121.538 78.7067 121.644 78.6 121.858 78.6H124.29C124.503 78.6 124.61 78.7067 124.61 78.92V86.056C124.61 86.0987 124.62 86.1307 124.642 86.152C124.684 86.1733 124.727 86.1627 124.77 86.12C125.239 85.5867 125.794 85.1813 126.434 84.904C127.095 84.6053 127.788 84.456 128.514 84.456C130.114 84.456 131.426 84.8507 132.45 85.64C133.474 86.4293 134.21 87.528 134.658 88.936ZM131.266 96.84C131.799 95.8373 132.066 94.5147 132.066 92.872C132.066 91.1227 131.724 89.7147 131.042 88.648C130.423 87.624 129.474 87.112 128.194 87.112C126.999 87.112 126.092 87.656 125.474 88.744C124.919 89.7253 124.642 91.0907 124.642 92.84C124.642 94.5893 124.898 95.9333 125.41 96.872C126.05 98.024 126.988 98.6 128.226 98.6C129.634 98.6 130.647 98.0133 131.266 96.84ZM139.513 101C139.3 101 139.193 100.893 139.193 100.68V78.92C139.193 78.7067 139.3 78.6 139.513 78.6H141.945C142.158 78.6 142.265 78.7067 142.265 78.92V100.68C142.265 100.893 142.158 101 141.945 101H139.513ZM159.908 90.824C159.994 91.6987 160.026 92.68 160.004 93.768C160.004 93.9813 159.898 94.088 159.684 94.088H149.476C149.391 94.088 149.348 94.1307 149.348 94.216C149.348 94.9413 149.412 95.496 149.54 95.88C149.775 96.7333 150.244 97.4053 150.948 97.896C151.674 98.3653 152.58 98.6 153.668 98.6C155.247 98.6 156.463 97.9493 157.316 96.648C157.423 96.4347 157.562 96.4027 157.732 96.552L159.556 97.768C159.706 97.896 159.738 98.0347 159.652 98.184C159.055 99.144 158.202 99.9013 157.092 100.456C156.004 101.011 154.767 101.288 153.38 101.288C151.823 101.288 150.511 100.947 149.444 100.264C148.378 99.5813 147.578 98.6107 147.044 97.352C146.532 96.0933 146.276 94.568 146.276 92.776C146.276 91.2187 146.394 90.0347 146.628 89.224C147.012 87.752 147.78 86.5893 148.932 85.736C150.084 84.8827 151.482 84.456 153.124 84.456C155.279 84.456 156.89 85 157.956 86.088C159.023 87.1547 159.674 88.7333 159.908 90.824ZM153.124 87.112C152.207 87.112 151.45 87.3467 150.852 87.816C150.255 88.264 149.85 88.872 149.636 89.64C149.487 90.1093 149.391 90.7067 149.348 91.432C149.348 91.5173 149.391 91.56 149.476 91.56H156.804C156.89 91.56 156.932 91.5173 156.932 91.432C156.89 90.728 156.826 90.2053 156.74 89.864C156.527 89.032 156.1 88.3707 155.46 87.88C154.842 87.368 154.063 87.112 153.124 87.112Z" fill="white"/>
</svg>
