<svg width="250" height="250" viewBox="0 0 250 250" fill="none" xmlns="http://www.w3.org/2000/svg">
<circle cx="125" cy="125" r="125" fill="#FFECEC"/>
<path d="M176.812 77.6562H86.1875C78.6799 77.6562 72.5938 83.7424 72.5938 91.25V172.812C72.5938 180.32 78.6799 186.406 86.1875 186.406H176.812C184.32 186.406 190.406 180.32 190.406 172.812V91.25C190.406 83.7424 184.32 77.6562 176.812 77.6562Z" stroke="#EF5A5A" stroke-width="4" stroke-linejoin="round"/>
<path d="M142.828 127.5C146.582 127.5 149.625 124.457 149.625 120.703C149.625 116.949 146.582 113.906 142.828 113.906C139.074 113.906 136.031 116.949 136.031 120.703C136.031 124.457 139.074 127.5 142.828 127.5Z" fill="#EF5A5A"/>
<path d="M165.484 127.5C169.238 127.5 172.281 124.457 172.281 120.703C172.281 116.949 169.238 113.906 165.484 113.906C161.731 113.906 158.688 116.949 158.688 120.703C158.688 124.457 161.731 127.5 165.484 127.5Z" fill="#EF5A5A"/>
<path d="M142.828 150.156C146.582 150.156 149.625 147.113 149.625 143.359C149.625 139.606 146.582 136.562 142.828 136.562C139.074 136.562 136.031 139.606 136.031 143.359C136.031 147.113 139.074 150.156 142.828 150.156Z" fill="#EF5A5A"/>
<path d="M165.484 150.156C169.238 150.156 172.281 147.113 172.281 143.359C172.281 139.606 169.238 136.562 165.484 136.562C161.731 136.562 158.688 139.606 158.688 143.359C158.688 147.113 161.731 150.156 165.484 150.156Z" fill="#EF5A5A"/>
<path d="M97.5156 150.156C101.269 150.156 104.312 147.113 104.312 143.359C104.312 139.606 101.269 136.562 97.5156 136.562C93.7618 136.562 90.7188 139.606 90.7188 143.359C90.7188 147.113 93.7618 150.156 97.5156 150.156Z" fill="#EF5A5A"/>
<path d="M120.172 150.156C123.926 150.156 126.969 147.113 126.969 143.359C126.969 139.606 123.926 136.562 120.172 136.562C116.418 136.562 113.375 139.606 113.375 143.359C113.375 147.113 116.418 150.156 120.172 150.156Z" fill="#EF5A5A"/>
<path d="M97.5156 172.812C101.269 172.812 104.312 169.769 104.312 166.016C104.312 162.262 101.269 159.219 97.5156 159.219C93.7618 159.219 90.7188 162.262 90.7188 166.016C90.7188 169.769 93.7618 172.812 97.5156 172.812Z" fill="#EF5A5A"/>
<path d="M120.172 172.812C123.926 172.812 126.969 169.769 126.969 166.016C126.969 162.262 123.926 159.219 120.172 159.219C116.418 159.219 113.375 162.262 113.375 166.016C113.375 169.769 116.418 172.812 120.172 172.812Z" fill="#EF5A5A"/>
<path d="M142.828 172.812C146.582 172.812 149.625 169.769 149.625 166.016C149.625 162.262 146.582 159.219 142.828 159.219C139.074 159.219 136.031 162.262 136.031 166.016C136.031 169.769 139.074 172.812 142.828 172.812Z" fill="#EF5A5A"/>
<path d="M95.25 68.5938V77.6562M167.75 68.5938V77.6562" stroke="#EF5A5A" stroke-width="4" stroke-linecap="round" stroke-linejoin="round"/>
<path d="M190.406 100.312H72.5938" stroke="#EF5A5A" stroke-width="4" stroke-linejoin="round"/>
</svg>
