<svg width="221" height="221" viewBox="0 0 221 221" fill="none" xmlns="http://www.w3.org/2000/svg">
<rect width="221" height="221" rx="8" fill="#FFD6D6"/>
<path d="M103.765 113.409L99.6685 112.352C99.6685 112.352 96.125 103.038 106.821 97.9017C115.127 93.9355 105.585 82.1995 105.585 82.1995L110.592 83.5161C110.592 83.5161 119.012 97.9668 108.966 101.153C98.9208 104.339 103.358 111.15 103.765 113.409Z" fill="#4799AF"/>
<path d="M139.786 112.352L135.625 113.035C135.625 113.035 128.619 105.932 136.324 96.9264C142.322 89.9368 128.863 83.0447 128.863 83.0447L134.032 82.1995C134.032 82.1995 147.589 91.9524 139.738 98.9746C131.886 105.997 138.567 110.337 139.786 112.352Z" fill="#D23733"/>
<path d="M157.407 80.7017C142.062 69.9735 125.32 58.8876 123.271 57.5059V46.1275C123.271 41.6736 120.216 38 116.444 38H108.642C104.887 38 101.831 41.6411 101.831 46.1275V50.0937H107.488V46.1275C107.471 45.8267 107.559 45.5294 107.737 45.2863C107.915 45.0432 108.171 44.8694 108.463 44.7946H116.591C116.881 44.8721 117.136 45.0466 117.313 45.2891C117.491 45.5315 117.58 45.8274 117.566 46.1275V57.5059C117.566 57.5059 99.6856 69.372 83.4306 80.7993C72.0522 88.8129 74.5229 94.681 74.5229 94.681H166.201C166.201 94.681 168.785 88.7154 157.407 80.7017ZM120.378 87.0249H87.2668C87.2668 87.0249 88.8923 84.6029 99.0679 79.0762C105.593 75.3537 112.881 73.1688 120.378 72.688C127.88 73.1692 135.174 75.3539 141.705 79.0762C151.913 84.6029 153.506 87.0249 153.506 87.0249H120.378Z" fill="#A7A7A7"/>
<path d="M152.676 80.7017C137.412 69.9735 120.686 58.8876 118.671 57.5059V46.1275C118.671 41.6736 115.615 38 111.843 38H103.992C100.221 38 97.1652 41.6411 97.1652 46.1275V50.0937H102.838V46.1275C102.821 45.8267 102.909 45.5294 103.087 45.2863C103.265 45.0432 103.522 44.8694 103.814 44.7946H111.941C112.236 44.8662 112.496 45.0386 112.677 45.282C112.858 45.5255 112.949 45.8245 112.933 46.1275V57.5059C112.933 57.5059 95.0521 69.372 78.7971 80.7993C67.4187 88.8129 69.9219 94.681 69.9219 94.681H161.567C161.567 94.681 164.071 88.7154 152.676 80.7017ZM115.728 87.0249H82.6333C82.6333 87.0249 84.2588 84.6029 94.4344 79.0762C100.959 75.3537 108.248 73.1688 115.745 72.688C123.247 73.1692 130.54 75.3539 137.071 79.0762C147.279 84.6029 148.856 87.0249 148.856 87.0249H115.728Z" fill="#484848"/>
<path d="M143.085 104.626L136.079 105.78L148.579 119.288L158.072 176.928L165.078 175.774L155.602 118.134L143.085 104.626Z" fill="#479DA7"/>
<path d="M136.079 105.782L133.023 106.269L126.017 107.424L123.01 107.911L116.004 109.065L108.527 125.889L118.02 183.529L125.026 182.375L138.03 180.229L145.036 179.075L158.04 176.93L148.579 119.273L136.079 105.782ZM130.081 122.736C128.832 122.611 127.659 122.078 126.743 121.219C125.828 120.36 125.221 119.223 125.017 117.984C124.814 116.745 125.024 115.474 125.616 114.367C126.209 113.26 127.149 112.379 128.293 111.861C129.542 111.986 130.716 112.519 131.631 113.378C132.547 114.237 133.153 115.374 133.357 116.613C133.561 117.852 133.35 119.123 132.758 120.23C132.166 121.337 131.225 122.218 130.081 122.736Z" fill="#5EBFD2"/>
<path d="M125.011 117.99C124.801 116.753 125.006 115.482 125.594 114.374C126.182 113.265 127.12 112.382 128.262 111.862C127.48 111.833 126.701 111.965 125.972 112.25C125.244 112.535 124.581 112.966 124.027 113.518C123.472 114.069 123.036 114.729 122.747 115.456C122.458 116.183 122.322 116.961 122.347 117.743C122.371 118.525 122.556 119.293 122.89 120.001C123.224 120.708 123.7 121.339 124.289 121.855C124.877 122.37 125.565 122.759 126.31 122.998C127.055 123.236 127.841 123.319 128.619 123.241C129.111 123.146 129.59 122.999 130.05 122.802C128.796 122.669 127.622 122.125 126.711 121.255C125.799 120.384 125.201 119.236 125.011 117.99Z" fill="#479DA7"/>
<path d="M130.552 112.577L126.375 113.276C124.512 110.735 123.635 107.604 123.907 104.464C124.179 101.325 125.582 98.3912 127.854 96.2084C135.982 87.5446 127.854 83.2045 127.854 83.2045L134.031 82.1804C134.031 82.1804 140.631 91.7708 132.763 98.7117C124.896 105.653 129.317 110.578 130.552 112.577Z" fill="#E7473D"/>
<path d="M109.811 107.687L102.919 105.915L108.917 123.308L94.304 179.891L101.18 181.663L115.793 125.096L109.811 107.687Z" fill="#D23733"/>
<path d="M102.92 105.913L99.9774 105.149L93.1016 103.378L90.1432 102.614L83.2673 100.842L69.6294 113.163L55 169.665L61.8758 171.437L74.6522 174.688L81.5443 176.46L94.3044 179.711L108.934 123.144L102.92 105.913ZM90.5983 118.917C89.5019 118.301 88.6397 117.34 88.1458 116.184C87.6519 115.027 87.554 113.74 87.8673 112.522C88.1806 111.304 88.8876 110.223 89.8782 109.449C90.8689 108.674 92.0878 108.248 93.3454 108.238C94.4418 108.854 95.304 109.815 95.7979 110.971C96.2918 112.128 96.3897 113.415 96.0764 114.633C95.7631 115.851 95.0562 116.932 94.0655 117.706C93.0748 118.481 91.8559 118.907 90.5983 118.917Z" fill="#E7473D"/>
<path d="M87.8684 112.593C88.1883 111.38 88.8972 110.304 89.8866 109.532C90.8761 108.76 92.0913 108.334 93.3463 108.318C92.9138 108.067 92.4489 107.875 91.9646 107.749C90.5304 107.468 89.0428 107.746 87.8072 108.527C86.5716 109.308 85.6815 110.531 85.3197 111.948C84.9579 113.364 85.1517 114.865 85.8614 116.142C86.5711 117.42 87.7428 118.378 89.1363 118.819C89.6209 118.935 90.1172 118.995 90.6155 118.998C89.5182 118.38 88.6548 117.418 88.1583 116.26C87.6619 115.103 87.56 113.814 87.8684 112.593Z" fill="#D23733"/>
<path d="M95.1165 109.894L91.0365 108.838C90.3572 105.76 90.8183 102.541 92.3342 99.7788C93.85 97.0162 96.3174 94.898 99.2777 93.8179C110.169 89.169 104.528 81.9518 104.528 81.9518L110.591 83.5773C110.591 83.5773 112.753 94.9558 102.756 98.2068C92.7595 101.458 94.8076 107.553 95.1165 109.894Z" fill="#5EBFD2"/>
<path d="M124.575 128.693C124.639 128.682 124.701 128.698 124.761 128.741C124.806 128.773 124.833 128.821 124.844 128.885L125.943 135.445C125.953 135.509 125.991 135.536 126.055 135.525L129.653 134.923C129.717 134.912 129.743 134.875 129.733 134.81L128.995 130.405C128.984 130.341 129.001 130.285 129.046 130.238C129.076 130.18 129.123 130.146 129.187 130.135L130.649 129.891C130.713 129.88 130.775 129.896 130.835 129.938C130.88 129.971 130.908 130.019 130.919 130.083L131.656 134.488C131.667 134.552 131.705 134.579 131.769 134.568L135.482 133.947C135.546 133.936 135.572 133.898 135.562 133.834L134.463 127.274C134.452 127.21 134.469 127.154 134.514 127.107C134.544 127.05 134.591 127.015 134.655 127.005L136.117 126.76C136.182 126.749 136.244 126.765 136.303 126.808C136.348 126.84 136.376 126.888 136.387 126.952L137.837 135.609C137.847 135.673 137.838 135.734 137.808 135.792C137.763 135.839 137.709 135.868 137.644 135.879L124.64 138.056C124.575 138.067 124.521 138.056 124.476 138.024C124.416 137.982 124.381 137.928 124.37 137.864L122.92 129.207C122.91 129.143 122.927 129.087 122.972 129.04C123.001 128.982 123.048 128.948 123.113 128.937L124.575 128.693Z" fill="white"/>
<path d="M139.807 147.368C139.817 147.433 139.808 147.494 139.778 147.551C139.733 147.598 139.679 147.627 139.614 147.638L126.61 149.816C126.545 149.827 126.491 149.816 126.446 149.784C126.386 149.741 126.351 149.688 126.34 149.624L126.044 147.854C126.033 147.79 126.05 147.734 126.095 147.687C126.125 147.629 126.172 147.595 126.236 147.584L137.452 145.706C137.516 145.695 137.542 145.658 137.532 145.594L136.452 139.149C136.442 139.085 136.459 139.029 136.504 138.982C136.534 138.924 136.581 138.89 136.645 138.879L138.107 138.635C138.171 138.624 138.233 138.64 138.293 138.683C138.338 138.715 138.366 138.763 138.376 138.827L139.807 147.368Z" fill="white"/>
<path d="M140.665 152.497C140.686 152.626 140.636 152.72 140.514 152.78L138.562 153.759C138.515 153.793 138.495 153.83 138.501 153.868L139.352 158.947C139.358 158.986 139.389 159.013 139.445 159.03L141.61 159.321C141.745 159.338 141.823 159.41 141.844 159.538L142.166 161.462C142.179 161.539 142.17 161.6 142.138 161.645C142.093 161.692 142.023 161.71 141.929 161.7L128.225 159.703C128.09 159.686 128.012 159.613 127.991 159.485L127.588 157.08C127.567 156.952 127.617 156.858 127.739 156.798L140.041 150.426C140.065 150.409 140.096 150.397 140.134 150.391C140.25 150.372 140.319 150.432 140.343 150.574L140.665 152.497ZM137.402 158.759C137.481 158.759 137.515 158.727 137.505 158.663L136.851 154.758C136.838 154.681 136.795 154.662 136.722 154.7L130.609 157.761C130.56 157.782 130.538 157.806 130.542 157.832C130.546 157.857 130.575 157.872 130.629 157.876L137.402 158.759Z" fill="white"/>
<path d="M143.52 168.605C143.688 169.606 143.674 170.505 143.478 171.302C143.282 172.1 142.929 172.752 142.421 173.259C141.91 173.753 141.264 174.066 140.482 174.197L140.001 174.277C139.936 174.288 139.882 174.278 139.837 174.245C139.777 174.203 139.742 174.149 139.731 174.085L139.444 172.373C139.434 172.309 139.451 172.253 139.496 172.206C139.525 172.149 139.572 172.114 139.637 172.104L140.002 172.042C140.592 171.944 141.042 171.598 141.351 171.005C141.648 170.415 141.72 169.665 141.568 168.754C141.437 167.972 141.171 167.41 140.771 167.068C140.371 166.726 139.908 166.599 139.382 166.688C139.023 166.748 138.74 166.907 138.533 167.166C138.313 167.427 138.135 167.78 137.998 168.225C137.86 168.657 137.704 169.302 137.531 170.162C137.35 171.128 137.16 171.918 136.959 172.532C136.759 173.146 136.441 173.687 136.005 174.155C135.554 174.613 134.95 174.906 134.194 175.032C133.065 175.221 132.105 174.96 131.314 174.249C130.522 173.538 130.011 172.496 129.781 171.123C129.62 170.162 129.645 169.287 129.856 168.5C130.065 167.701 130.437 167.045 130.971 166.534C131.492 166.024 132.144 165.704 132.926 165.573L133.253 165.519C133.317 165.508 133.379 165.524 133.439 165.567C133.484 165.599 133.512 165.647 133.523 165.711L133.813 167.442C133.823 167.506 133.814 167.567 133.784 167.625C133.739 167.672 133.685 167.701 133.621 167.712L133.409 167.747C132.806 167.848 132.341 168.183 132.015 168.752C131.673 169.31 131.575 170.025 131.721 170.897C131.84 171.603 132.079 172.13 132.441 172.478C132.8 172.813 133.249 172.936 133.788 172.846C134.173 172.781 134.47 172.626 134.679 172.38C134.888 172.134 135.061 171.789 135.198 171.344C135.322 170.901 135.465 170.224 135.629 169.314C135.823 168.345 136.016 167.568 136.208 166.982C136.398 166.383 136.717 165.848 137.165 165.378C137.599 164.896 138.194 164.592 138.951 164.466C140.105 164.272 141.094 164.548 141.918 165.294C142.739 166.026 143.274 167.13 143.52 168.605Z" fill="white"/>
<path d="M92.3465 141.88C92.0827 142.819 91.661 143.599 91.0815 144.22C90.4894 144.837 89.7865 145.247 88.9729 145.451C88.1628 145.642 87.3008 145.609 86.3869 145.352L82.1053 144.149C81.2039 143.896 80.4652 143.473 79.8892 142.878C79.3006 142.281 78.9188 141.573 78.7437 140.753C78.5596 139.918 78.5994 139.031 78.8632 138.092C79.1305 137.141 79.5585 136.363 80.147 135.758C80.7266 135.138 81.4232 134.725 82.2368 134.522C83.0379 134.315 83.8892 134.338 84.7906 134.591L89.0722 135.794C89.9861 136.051 90.7373 136.478 91.3258 137.075C91.9144 137.673 92.3007 138.389 92.4848 139.224C92.6599 140.043 92.6138 140.929 92.3465 141.88ZM90.4686 141.353C90.6902 140.564 90.6237 139.863 90.2691 139.25C89.9145 138.637 89.3365 138.218 88.5353 137.993L84.1598 136.764C83.3461 136.535 82.6282 136.59 82.0063 136.929C81.3844 137.267 80.9627 137.831 80.7411 138.62C80.523 139.396 80.5913 140.091 80.9459 140.703C81.3005 141.316 81.8847 141.737 82.6985 141.966L87.0739 143.195C87.8752 143.42 88.5867 143.363 89.2087 143.025C89.8306 142.686 90.2505 142.129 90.4686 141.353Z" fill="white"/>
<path d="M76.3955 148.318C76.3329 148.301 76.2881 148.268 76.2611 148.22C76.2251 148.155 76.2159 148.092 76.2335 148.029L76.7188 146.302C76.7364 146.239 76.7755 146.196 76.8361 146.173C76.8878 146.133 76.9449 146.122 77.0075 146.14L89.702 149.706C89.7646 149.724 89.8139 149.765 89.8499 149.829C89.877 149.877 89.8817 149.932 89.8641 149.995L89.3945 151.666C89.3594 151.791 89.2847 151.865 89.1705 151.887L78.7874 154.805C78.7428 154.819 78.7233 154.841 78.7287 154.87C78.7217 154.895 78.7432 154.914 78.7933 154.928L87.5548 157.349C87.6174 157.367 87.6667 157.408 87.7027 157.472C87.7298 157.52 87.7345 157.575 87.7169 157.638L87.2315 159.365C87.2139 159.428 87.1793 159.479 87.1277 159.519C87.0671 159.542 87.0055 159.545 86.9429 159.527L74.2483 155.961C74.1857 155.944 74.1409 155.911 74.1139 155.863C74.0779 155.798 74.0687 155.735 74.0863 155.672L74.5558 154.001C74.591 153.876 74.6657 153.802 74.7799 153.78L85.1577 150.881C85.2023 150.867 85.2281 150.847 85.2351 150.822C85.2296 150.793 85.2018 150.772 85.1518 150.758L76.3955 148.318Z" fill="white"/>
</svg>
