<svg width="200" height="187" viewBox="0 0 200 187" fill="none" xmlns="http://www.w3.org/2000/svg">
<path d="M14.5 90.6016V176.342H85.44V106.152H114.92V176.342H185.86V90.6016H14.5ZM77.32 154.872H21.76V106.152H77.32V154.872ZM178.66 154.872H123.09V106.152H178.61L178.66 154.872Z" fill="#EF5A5A"/>
<path d="M1.61035 90.9219C1.69621 93.7569 2.88277 96.447 4.91848 98.422C6.95419 100.397 9.67903 101.502 12.5154 101.502C15.3517 101.502 18.0765 100.397 20.1122 98.422C22.1479 96.447 23.3345 93.7569 23.4204 90.9219H1.61035Z" fill="white"/>
<path d="M12.5204 102.822C9.36417 102.819 6.33786 101.565 4.10516 99.3341C1.87246 97.1033 0.615646 94.0781 0.610352 90.9219C0.610352 90.6567 0.715708 90.4023 0.903245 90.2148C1.09078 90.0272 1.34514 89.9219 1.61035 89.9219H23.4204C23.6856 89.9219 23.9399 90.0272 24.1275 90.2148C24.315 90.4023 24.4204 90.6567 24.4204 90.9219C24.4151 94.0763 23.1596 97.1001 20.9291 99.3306C18.6985 101.561 15.6748 102.817 12.5204 102.822ZM2.66035 91.9219C2.91788 94.3561 4.06718 96.6088 5.88679 98.2461C7.7064 99.8833 10.0676 100.789 12.5154 100.789C14.9631 100.789 17.3243 99.8833 19.1439 98.2461C20.9635 96.6088 22.1128 94.3561 22.3703 91.9219H2.66035Z" fill="#676767"/>
<path d="M23.4199 90.9219C23.5058 93.7569 24.6923 96.447 26.7281 98.422C28.7638 100.397 31.4886 101.502 34.3249 101.502C37.1612 101.502 39.8861 100.397 41.9218 98.422C43.9575 96.447 45.1441 93.7569 45.2299 90.9219H23.4199Z" fill="white"/>
<path d="M34.3199 102.822C31.1655 102.817 28.1417 101.561 25.9112 99.3306C23.6807 97.1001 22.4252 94.0763 22.4199 90.9219C22.4199 90.6567 22.5253 90.4023 22.7128 90.2148C22.9004 90.0272 23.1547 89.9219 23.4199 89.9219H45.2299C45.4951 89.9219 45.7495 90.0272 45.937 90.2148C46.1246 90.4023 46.2299 90.6567 46.2299 90.9219C46.2246 94.0781 44.9678 97.1033 42.7351 99.3341C40.5024 101.565 37.4761 102.819 34.3199 102.822ZM24.4599 91.9219C24.7175 94.3561 25.8667 96.6088 27.6864 98.2461C29.506 99.8833 31.8671 100.789 34.3149 100.789C36.7627 100.789 39.1239 99.8833 40.9435 98.2461C42.7631 96.6088 43.9124 94.3561 44.1699 91.9219H24.4599Z" fill="#676767"/>
<path d="M67.04 90.9219C67.1259 93.7569 68.3125 96.447 70.3482 98.422C72.3839 100.397 75.1087 101.502 77.945 101.502C80.7814 101.502 83.5062 100.397 85.5419 98.422C87.5776 96.447 88.7642 93.7569 88.85 90.9219H67.04Z" fill="white"/>
<path d="M77.94 102.822C74.7856 102.817 71.7618 101.561 69.5313 99.3306C67.3008 97.1001 66.0453 94.0763 66.04 90.9219C66.04 90.6567 66.1454 90.4023 66.3329 90.2148C66.5205 90.0272 66.7748 89.9219 67.04 89.9219H88.85C89.1153 89.9219 89.3696 90.0272 89.5571 90.2148C89.7447 90.4023 89.85 90.6567 89.85 90.9219C89.8447 94.0781 88.5879 97.1033 86.3552 99.3341C84.1225 101.565 81.0962 102.819 77.94 102.822ZM68.09 91.9219C68.3476 94.3561 69.4969 96.6088 71.3165 98.2461C73.1361 99.8833 75.4973 100.789 77.945 100.789C80.3928 100.789 82.754 99.8833 84.5736 98.2461C86.3932 96.6088 87.5425 94.3561 87.8 91.9219H68.09Z" fill="#676767"/>
<path d="M88.8506 90.9219C88.9364 93.7569 90.123 96.447 92.1587 98.422C94.1944 100.397 96.9193 101.502 99.7556 101.502C102.592 101.502 105.317 100.397 107.352 98.422C109.388 96.447 110.575 93.7569 110.661 90.9219H88.8506Z" fill="white"/>
<path d="M99.7506 102.822C96.5961 102.817 93.5724 101.561 91.3419 99.3306C89.1113 97.1001 87.8559 94.0763 87.8506 90.9219C87.8506 90.6567 87.9559 90.4023 88.1435 90.2148C88.331 90.0272 88.5854 89.9219 88.8506 89.9219H110.661C110.926 89.9219 111.18 90.0272 111.368 90.2148C111.555 90.4023 111.661 90.6567 111.661 90.9219C111.655 94.0781 110.398 97.1033 108.166 99.3341C105.933 101.565 102.907 102.819 99.7506 102.822ZM89.9006 91.9219C90.1581 94.3561 91.3074 96.6088 93.127 98.2461C94.9466 99.8833 97.3078 100.789 99.7556 100.789C102.203 100.789 104.565 99.8833 106.384 98.2461C108.204 96.6088 109.353 94.3561 109.611 91.9219H89.9006Z" fill="#676767"/>
<path d="M45.2305 90.9219C45.3163 93.7569 46.5029 96.447 48.5386 98.422C50.5743 100.397 53.2991 101.502 56.1355 101.502C58.9718 101.502 61.6966 100.397 63.7323 98.422C65.7681 96.447 66.9546 93.7569 67.0405 90.9219H45.2305Z" fill="white"/>
<path d="M56.1405 102.822C52.9843 102.819 49.958 101.565 47.7253 99.3341C45.4926 97.1033 44.2358 94.0781 44.2305 90.9219C44.2305 90.6567 44.3358 90.4023 44.5234 90.2148C44.7109 90.0272 44.9653 89.9219 45.2305 89.9219H67.0405C67.3057 89.9219 67.56 90.0272 67.7476 90.2148C67.9351 90.4023 68.0405 90.6567 68.0405 90.9219C68.0352 94.0763 66.7797 97.1001 64.5492 99.3306C62.3187 101.561 59.2949 102.817 56.1405 102.822ZM46.3205 91.9219C46.578 94.3561 47.7273 96.6088 49.5469 98.2461C51.3665 99.8833 53.7277 100.789 56.1755 100.789C58.6232 100.789 60.9844 99.8833 62.804 98.2461C64.6236 96.6088 65.7729 94.3561 66.0305 91.9219H46.3205Z" fill="#676767"/>
<path d="M50.3899 43.8516L45.2299 90.9216H23.4199L32.9499 43.8516H50.3899Z" fill="white"/>
<path d="M45.2307 91.9218H23.4207C23.273 91.9208 23.1274 91.8871 22.9942 91.8231C22.8611 91.7592 22.7438 91.6665 22.6507 91.5518C22.5565 91.4376 22.4887 91.3039 22.4524 91.1604C22.4161 91.0168 22.4121 90.867 22.4407 90.7218L31.9707 43.6518C32.0175 43.4225 32.1432 43.2169 32.3259 43.0707C32.5086 42.9245 32.7368 42.847 32.9707 42.8518H50.3907C50.5303 42.8521 50.6682 42.8816 50.7957 42.9385C50.9231 42.9953 51.0372 43.0782 51.1307 43.1818C51.2251 43.2868 51.2962 43.4106 51.3393 43.545C51.3824 43.6794 51.3965 43.8215 51.3807 43.9618L46.2307 91.0018C46.2106 91.2529 46.0964 91.4871 45.911 91.6577C45.7256 91.8283 45.4827 91.9226 45.2307 91.9218ZM24.6507 89.9218H44.3207L49.3207 44.8518H33.7607L24.6507 89.9218Z" fill="#878787"/>
<path d="M88.85 91.9216H67.04C66.7748 91.9216 66.5205 91.8162 66.3329 91.6287C66.1454 91.4411 66.04 91.1868 66.04 90.9216L68.61 43.8516C68.61 43.5863 68.7154 43.332 68.9029 43.1445C69.0905 42.9569 69.3448 42.8516 69.61 42.8516H90.4C90.5347 42.8521 90.668 42.8798 90.7917 42.9331C90.9154 42.9863 91.0271 43.0641 91.12 43.1616C91.2146 43.2594 91.2882 43.3755 91.3363 43.5027C91.3845 43.6299 91.4062 43.7657 91.4 43.9016L89.85 91.0016C89.8299 91.2527 89.7157 91.4869 89.5303 91.6575C89.3449 91.8281 89.102 91.9224 88.85 91.9216ZM68.05 89.9216H87.9L89.32 44.8516H70.6L68.05 89.9216Z" fill="#878787"/>
<path d="M67.0406 91.9216H45.2306C45.0911 91.9213 44.9531 91.8917 44.8257 91.8349C44.6983 91.7781 44.5841 91.6952 44.4906 91.5916C44.3962 91.4866 44.3252 91.3628 44.2821 91.2284C44.239 91.0939 44.2249 90.9519 44.2406 90.8116L49.4006 43.7416C49.4278 43.4959 49.5451 43.2689 49.7297 43.1046C49.9144 42.9402 50.1534 42.8501 50.4006 42.8516H69.3206C69.457 42.8507 69.5921 42.8778 69.7177 42.9311C69.8432 42.9844 69.9565 43.0629 70.0506 43.1616C70.1434 43.2602 70.2151 43.3767 70.2616 43.5039C70.308 43.6311 70.3281 43.7664 70.3206 43.9016L68.0406 91.0016C68.0205 91.2527 67.9063 91.487 67.7209 91.6575C67.5355 91.8281 67.2925 91.9224 67.0406 91.9216ZM46.3206 89.9216H66.0906L68.3206 44.8516H51.3206L46.3206 89.9216Z" fill="#878787"/>
<path d="M23.4199 91.9183H1.31988C1.16463 91.9183 1.01152 91.8822 0.872666 91.8128C0.733811 91.7433 0.613027 91.6425 0.51988 91.5183C0.421432 91.3987 0.35212 91.2579 0.317413 91.1069C0.282705 90.9559 0.283549 90.7989 0.31988 90.6483L13.7999 43.5783C13.8604 43.362 13.9919 43.1724 14.1733 43.04C14.3547 42.9075 14.5754 42.84 14.7999 42.8483H32.9499C33.0976 42.8493 33.2432 42.883 33.3764 42.947C33.5095 43.011 33.6268 43.1036 33.7199 43.2183C33.8141 43.3325 33.8819 43.4662 33.9182 43.6097C33.9545 43.7533 33.9585 43.9031 33.9299 44.0483L24.3999 91.1183C24.3538 91.3442 24.231 91.5472 24.0525 91.693C23.8739 91.8388 23.6504 91.9184 23.4199 91.9183ZM2.64988 89.9183H22.6499L31.7199 44.8483H15.5099L2.64988 89.9183Z" fill="#878787"/>
<path d="M198.38 90.9219C198.294 93.7569 197.108 96.447 195.072 98.422C193.036 100.397 190.312 101.502 187.475 101.502C184.639 101.502 181.914 100.397 179.878 98.422C177.843 96.447 176.656 93.7569 176.57 90.9219H198.38Z" fill="white"/>
<path d="M187.47 102.822C184.316 102.817 181.292 101.561 179.062 99.3306C176.831 97.1001 175.576 94.0763 175.57 90.9219C175.57 90.6567 175.676 90.4023 175.863 90.2148C176.051 90.0272 176.305 89.9219 176.57 89.9219H198.38C198.646 89.9219 198.9 90.0272 199.087 90.2148C199.275 90.4023 199.38 90.6567 199.38 90.9219C199.375 94.0781 198.118 97.1033 195.885 99.3341C193.653 101.565 190.626 102.819 187.47 102.822ZM177.62 91.9219C177.878 94.3561 179.027 96.6088 180.847 98.2461C182.666 99.8833 185.028 100.789 187.475 100.789C189.923 100.789 192.284 99.8833 194.104 98.2461C195.923 96.6088 197.073 94.3561 197.33 91.9219H177.62Z" fill="#676767"/>
<path d="M176.571 90.9219C176.485 93.7569 175.298 96.447 173.263 98.422C171.227 100.397 168.502 101.502 165.666 101.502C162.829 101.502 160.105 100.397 158.069 98.422C156.033 96.447 154.847 93.7569 154.761 90.9219H176.571Z" fill="white"/>
<path d="M165.661 102.822C162.506 102.817 159.483 101.561 157.252 99.3306C155.021 97.1001 153.766 94.0763 153.761 90.9219C153.761 90.6567 153.866 90.4023 154.054 90.2148C154.241 90.0272 154.496 89.9219 154.761 89.9219H176.571C176.836 89.9219 177.09 90.0272 177.278 90.2148C177.465 90.4023 177.571 90.6567 177.571 90.9219C177.565 94.0781 176.309 97.1033 174.076 99.3341C171.843 101.565 168.817 102.819 165.661 102.822ZM155.811 91.9219C156.068 94.3561 157.218 96.6088 159.037 98.2461C160.857 99.8833 163.218 100.789 165.666 100.789C168.114 100.789 170.475 99.8833 172.294 98.2461C174.114 96.6088 175.263 94.3561 175.521 91.9219H155.811Z" fill="#676767"/>
<path d="M132.951 90.9219C132.865 93.7569 131.678 96.447 129.642 98.422C127.607 100.397 124.882 101.502 122.046 101.502C119.209 101.502 116.484 100.397 114.449 98.422C112.413 96.447 111.226 93.7569 111.141 90.9219H132.951Z" fill="white"/>
<path d="M122.051 102.822C118.894 102.819 115.868 101.565 113.635 99.3341C111.403 97.1033 110.146 94.0781 110.141 90.9219C110.141 90.6567 110.246 90.4023 110.434 90.2148C110.621 90.0272 110.875 89.9219 111.141 89.9219H132.951C133.216 89.9219 133.47 90.0272 133.658 90.2148C133.845 90.4023 133.951 90.6567 133.951 90.9219C133.945 94.0763 132.69 97.1001 130.459 99.3306C128.229 101.561 125.205 102.817 122.051 102.822ZM112.191 91.9219C112.448 94.3561 113.597 96.6088 115.417 98.2461C117.237 99.8833 119.598 100.789 122.046 100.789C124.493 100.789 126.855 99.8833 128.674 98.2461C130.494 96.6088 131.643 94.3561 131.901 91.9219H112.191Z" fill="#676767"/>
<path d="M154.76 90.9219C154.674 93.7569 153.488 96.447 151.452 98.422C149.416 100.397 146.692 101.502 143.855 101.502C141.019 101.502 138.294 100.397 136.258 98.422C134.223 96.447 133.036 93.7569 132.95 90.9219H154.76Z" fill="white"/>
<path d="M143.86 102.822C140.704 102.819 137.678 101.565 135.445 99.3341C133.212 97.1033 131.955 94.0781 131.95 90.9219C131.95 90.6567 132.056 90.4023 132.243 90.2148C132.431 90.0272 132.685 89.9219 132.95 89.9219H154.76C155.025 89.9219 155.28 90.0272 155.467 90.2148C155.655 90.4023 155.76 90.6567 155.76 90.9219C155.755 94.0763 154.499 97.1001 152.269 99.3306C150.038 101.561 147.015 102.817 143.86 102.822ZM134 91.9219C134.258 94.3561 135.407 96.6088 137.227 98.2461C139.046 99.8833 141.407 100.789 143.855 100.789C146.303 100.789 148.664 99.8833 150.484 98.2461C152.303 96.6088 153.453 94.3561 153.71 91.9219H134Z" fill="#676767"/>
<path d="M149.601 43.8516L154.761 90.9216H176.571L167.051 43.8516H149.601Z" fill="white"/>
<path d="M176.571 91.9208H154.761C154.514 91.9223 154.275 91.8322 154.09 91.6678C153.905 91.5035 153.788 91.2765 153.761 91.0308L148.611 44.0008C148.595 43.8605 148.609 43.7185 148.652 43.5841C148.695 43.4496 148.766 43.3258 148.861 43.2208C148.954 43.1172 149.068 43.0344 149.196 42.9775C149.323 42.9207 149.461 42.8912 149.601 42.8908H167.051C167.285 42.8861 167.513 42.9636 167.696 43.1098C167.878 43.2559 168.004 43.4616 168.051 43.6908L177.571 90.7608C177.599 90.9061 177.595 91.0559 177.559 91.1994C177.523 91.343 177.455 91.4767 177.361 91.5908C177.262 91.7009 177.139 91.7876 177.003 91.8446C176.866 91.9017 176.719 91.9277 176.571 91.9208ZM155.661 89.9208H175.321L166.201 44.8508H150.721L155.661 89.9208Z" fill="#878787"/>
<path d="M132.95 91.9216H111.14C110.875 91.9216 110.621 91.8162 110.433 91.6287C110.246 91.4412 110.14 91.1868 110.14 90.9216L108.6 43.9016C108.593 43.7664 108.613 43.6311 108.659 43.5039C108.706 43.3767 108.777 43.2602 108.87 43.1616C108.964 43.0629 109.078 42.9844 109.203 42.9311C109.329 42.8778 109.464 42.8507 109.6 42.8516H130.38C130.645 42.8516 130.9 42.9569 131.087 43.1445C131.275 43.332 131.38 43.5864 131.38 43.8516L133.95 90.9216C133.951 91.0532 133.926 91.1837 133.876 91.3055C133.826 91.4273 133.753 91.5381 133.66 91.6316C133.567 91.7243 133.456 91.7976 133.334 91.8474C133.212 91.8971 133.082 91.9223 132.95 91.9216ZM112.09 89.9216H131.94L129.39 44.8516H110.65L112.09 89.9216Z" fill="#878787"/>
<path d="M154.76 91.9216H132.95C132.685 91.9216 132.43 91.8162 132.243 91.6287C132.055 91.4412 131.95 91.1868 131.95 90.9216L129.67 43.9016C129.664 43.7657 129.686 43.63 129.734 43.5027C129.782 43.3755 129.855 43.2594 129.95 43.1616C130.043 43.0641 130.155 42.9864 130.278 42.9331C130.402 42.8798 130.535 42.8521 130.67 42.8516H149.6C149.847 42.8501 150.086 42.9402 150.271 43.1046C150.456 43.2689 150.573 43.4959 150.6 43.7416L155.76 90.8116C155.775 90.9518 155.761 91.0938 155.718 91.2281C155.675 91.3624 155.603 91.4861 155.509 91.5909C155.415 91.6958 155.299 91.7794 155.17 91.8364C155.041 91.8934 154.901 91.9224 154.76 91.9216ZM133.91 89.9216H153.65L148.65 44.8516H131.65L133.91 89.9216Z" fill="#878787"/>
<path d="M198.671 91.9183H176.571C176.337 91.9231 176.108 91.8456 175.926 91.6994C175.743 91.5532 175.617 91.3476 175.571 91.1183L166.051 44.0483C166.02 43.9014 166.024 43.7495 166.061 43.604C166.097 43.4586 166.166 43.3232 166.262 43.208C166.358 43.0927 166.479 43.0005 166.615 42.9383C166.752 42.876 166.901 42.8453 167.051 42.8483H185.231C185.455 42.84 185.676 42.9075 185.857 43.04C186.038 43.1724 186.17 43.362 186.231 43.5783L199.671 90.6483C199.713 90.8 199.719 90.9597 199.689 91.1142C199.658 91.2688 199.591 91.4139 199.494 91.5377C199.396 91.6615 199.271 91.7605 199.128 91.8267C198.985 91.8928 198.828 91.9242 198.671 91.9183ZM177.391 89.9183H197.391L184.481 44.8483H168.321L177.391 89.9183Z" fill="#878787"/>
<path d="M90.2006 43.8516H109.301L110.661 90.9216H88.8506L90.2006 43.8516Z" fill="white"/>
<path d="M110.68 91.9203H88.8502C88.7162 91.9211 88.5835 91.8949 88.4598 91.8434C88.3361 91.7919 88.224 91.716 88.1302 91.6203C88.0369 91.5237 87.964 91.4092 87.9159 91.2838C87.8678 91.1584 87.8455 91.0246 87.8502 90.8903L89.2002 43.8203C89.2002 43.5551 89.3056 43.3007 89.4931 43.1132C89.6807 42.9257 89.935 42.8203 90.2002 42.8203H109.32C109.585 42.8203 109.84 42.9257 110.027 43.1132C110.215 43.3007 110.32 43.5551 110.32 43.8203L111.67 90.6903C111.68 90.7667 111.68 90.844 111.67 90.9203C111.67 91.1838 111.566 91.4367 111.381 91.6239C111.196 91.8112 110.944 91.9177 110.68 91.9203ZM89.8802 89.9203H109.63L108.32 44.8503H91.1702L89.8802 89.9203Z" fill="#878787"/>
<path d="M58.2803 33.3086H56.2803V43.7086H58.2803V33.3086Z" fill="black"/>
<path d="M136.931 33.3086H134.931V43.7086H136.931V33.3086Z" fill="black"/>
<path d="M192.63 186.71H7.32031C7.0551 186.71 6.80074 186.604 6.61321 186.417C6.42567 186.229 6.32031 185.975 6.32031 185.71V176.34C6.32031 176.075 6.42567 175.82 6.61321 175.633C6.80074 175.445 7.0551 175.34 7.32031 175.34H192.63C192.896 175.34 193.15 175.445 193.337 175.633C193.525 175.82 193.63 176.075 193.63 176.34V185.71C193.63 185.975 193.525 186.229 193.337 186.417C193.15 186.604 192.896 186.71 192.63 186.71ZM8.32031 184.71H191.63V177.34H8.32031V184.71Z" fill="#878787"/>
<path d="M108.601 144C108.007 144 107.427 143.824 106.934 143.494C106.441 143.165 106.056 142.696 105.829 142.148C105.602 141.6 105.542 140.997 105.658 140.415C105.774 139.833 106.06 139.298 106.479 138.879C106.899 138.459 107.433 138.173 108.015 138.058C108.597 137.942 109.2 138.001 109.749 138.228C110.297 138.455 110.765 138.84 111.095 139.333C111.425 139.827 111.601 140.407 111.601 141C111.601 141.796 111.285 142.559 110.722 143.121C110.159 143.684 109.396 144 108.601 144ZM108.601 140C108.403 140 108.209 140.059 108.045 140.169C107.881 140.278 107.752 140.435 107.677 140.617C107.601 140.8 107.581 141.001 107.62 141.195C107.658 141.389 107.754 141.567 107.893 141.707C108.033 141.847 108.212 141.942 108.405 141.981C108.599 142.019 108.801 142 108.983 141.924C109.166 141.848 109.322 141.72 109.432 141.556C109.542 141.391 109.601 141.198 109.601 141C109.601 140.735 109.495 140.48 109.308 140.293C109.12 140.105 108.866 140 108.601 140Z" fill="black"/>
<path d="M64.8803 146.719H33.3203C33.0551 146.719 32.8007 146.614 32.6132 146.426C32.4257 146.239 32.3203 145.985 32.3203 145.719V133.609C32.3203 133.344 32.4257 133.09 32.6132 132.902C32.8007 132.715 33.0551 132.609 33.3203 132.609H64.8803C65.1455 132.609 65.3999 132.715 65.5874 132.902C65.775 133.09 65.8803 133.344 65.8803 133.609V145.699C65.883 145.832 65.8591 145.965 65.81 146.088C65.761 146.212 65.6877 146.324 65.5946 146.419C65.5015 146.514 65.3903 146.59 65.2677 146.641C65.145 146.693 65.0133 146.719 64.8803 146.719ZM33.5003 145.469H64.6503V133.839H33.5003V145.469Z" fill="black"/>
<path d="M53.1905 133.649C53.076 133.65 52.9633 133.62 52.8647 133.562C52.766 133.504 52.685 133.42 52.6305 133.319L49.0805 126.479L45.5205 133.319C45.4385 133.46 45.3073 133.565 45.1523 133.615C44.9972 133.665 44.8292 133.656 44.6805 133.589C44.5367 133.518 44.4267 133.393 44.3743 133.242C44.3219 133.09 44.3313 132.924 44.4005 132.779L48.5205 124.869C48.5803 124.776 48.6624 124.7 48.7594 124.647C48.8564 124.594 48.965 124.566 49.0755 124.566C49.186 124.566 49.2947 124.594 49.3916 124.647C49.4886 124.7 49.5707 124.776 49.6305 124.869L53.7505 132.779C53.7861 132.851 53.8071 132.928 53.8123 133.008C53.8175 133.088 53.8067 133.168 53.7807 133.243C53.7546 133.318 53.7137 133.388 53.6605 133.447C53.6072 133.507 53.5426 133.555 53.4705 133.589C53.3826 133.629 53.2871 133.65 53.1905 133.649Z" fill="black"/>
<path d="M51.1299 125.16C51.1418 125.57 51.031 125.975 50.8116 126.322C50.5921 126.668 50.2742 126.942 49.8984 127.107C49.5226 127.271 49.1061 127.32 48.7023 127.247C48.2986 127.174 47.9259 126.981 47.6322 126.695C47.3385 126.408 47.137 126.04 47.0537 125.638C46.9703 125.237 47.0089 124.819 47.1644 124.439C47.32 124.06 47.5854 123.735 47.9267 123.507C48.2679 123.279 48.6695 123.158 49.0799 123.16C49.615 123.16 50.129 123.369 50.512 123.743C50.8951 124.117 51.1168 124.625 51.1299 125.16Z" fill="black"/>
<path d="M151.63 141C149.355 141 147.132 140.326 145.241 139.062C143.35 137.798 141.876 136.002 141.005 133.901C140.135 131.8 139.907 129.487 140.351 127.256C140.795 125.026 141.89 122.977 143.498 121.368C145.106 119.76 147.156 118.665 149.386 118.221C151.617 117.777 153.929 118.005 156.031 118.875C158.132 119.746 159.928 121.22 161.192 123.111C162.455 125.002 163.13 127.226 163.13 129.5C163.127 132.549 161.915 135.473 159.759 137.629C157.603 139.785 154.679 140.997 151.63 141ZM151.63 119.5C149.652 119.5 147.719 120.086 146.074 121.185C144.43 122.284 143.148 123.846 142.391 125.673C141.634 127.5 141.436 129.511 141.822 131.451C142.208 133.391 143.16 135.173 144.559 136.571C145.957 137.97 147.739 138.922 149.679 139.308C151.619 139.694 153.629 139.496 155.457 138.739C157.284 137.982 158.846 136.7 159.945 135.056C161.043 133.411 161.63 131.478 161.63 129.5C161.63 126.848 160.576 124.304 158.701 122.429C156.826 120.554 154.282 119.5 151.63 119.5Z" fill="black"/>
<path d="M151.631 117.75C145.261 117.75 140.101 122.63 140.101 128.65C140.101 128.65 140.101 128.72 140.101 128.76C141.845 129.62 143.765 130.065 145.711 130.06C147.839 130.081 149.936 129.549 151.796 128.514C153.657 127.48 155.216 125.979 156.321 124.16C157.901 127.55 160.321 129.8 163.051 130.04C163.114 129.579 163.147 129.115 163.151 128.65C163.161 122.63 158.001 117.75 151.631 117.75Z" fill="black"/>
<path d="M148.75 131C148.75 132.11 148.22 133 147.56 133C146.9 133 146.36 132.1 146.36 131C146.36 129.9 146.9 129 147.56 129C148.22 129 148.75 129.91 148.75 131Z" fill="black"/>
<path d="M156.901 131C156.901 132.11 156.371 133 155.711 133C155.051 133 154.511 132.1 154.511 131C154.511 129.9 155.051 129 155.711 129C156.371 129 156.901 129.91 156.901 131Z" fill="black"/>
<path d="M156.9 115.481C156.9 117.481 154.54 119.091 151.63 119.091C148.72 119.091 146.36 117.481 146.36 115.481C146.36 113.481 148.72 111.871 151.63 111.871C154.54 111.871 156.9 113.491 156.9 115.481Z" fill="black"/>
<path d="M155.71 134.36C155.266 134.365 154.825 134.282 154.414 134.116C154.002 133.949 153.628 133.702 153.312 133.39C152.997 133.077 152.746 132.705 152.576 132.294C152.406 131.884 152.319 131.444 152.32 131C152.32 130.867 152.373 130.74 152.467 130.646C152.561 130.553 152.688 130.5 152.82 130.5H158.51C158.643 130.5 158.77 130.553 158.864 130.646C158.958 130.74 159.01 130.867 159.01 131C159.013 131.882 158.668 132.729 158.05 133.358C157.433 133.987 156.592 134.347 155.71 134.36ZM153.42 131.52C153.54 132.038 153.831 132.5 154.247 132.831C154.663 133.162 155.179 133.342 155.71 133.342C156.242 133.342 156.758 133.162 157.174 132.831C157.59 132.5 157.881 132.038 158 131.52H153.42Z" fill="black"/>
<path d="M147.56 134.36C146.673 134.36 145.823 134.008 145.195 133.382C144.567 132.756 144.213 131.906 144.21 131.02C144.21 130.887 144.263 130.76 144.356 130.666C144.45 130.572 144.577 130.52 144.71 130.52H150.4C150.533 130.52 150.66 130.572 150.754 130.666C150.847 130.76 150.9 130.887 150.9 131.02C150.897 131.905 150.545 132.753 149.919 133.378C149.293 134.004 148.445 134.357 147.56 134.36ZM145.32 131.52C145.439 132.038 145.731 132.5 146.147 132.831C146.563 133.162 147.078 133.342 147.61 133.342C148.142 133.342 148.657 133.162 149.073 132.831C149.489 132.5 149.781 132.038 149.9 131.52H145.32Z" fill="black"/>
<path d="M151.63 137.931C149.97 137.931 148.29 137.491 148.29 136.511C148.286 136.445 148.295 136.379 148.317 136.317C148.338 136.255 148.372 136.197 148.415 136.148C148.459 136.099 148.512 136.059 148.571 136.03C148.63 136.001 148.694 135.984 148.76 135.981C148.826 135.977 148.891 135.986 148.954 136.007C149.016 136.029 149.073 136.062 149.122 136.106C149.172 136.149 149.212 136.202 149.24 136.261C149.269 136.321 149.286 136.385 149.29 136.451C150.007 136.834 150.82 137.001 151.63 136.931C152.453 137.013 153.281 136.838 154 136.431C153.998 136.367 154.01 136.304 154.035 136.245C154.059 136.187 154.096 136.134 154.142 136.091C154.188 136.047 154.243 136.014 154.303 135.993C154.363 135.973 154.427 135.965 154.49 135.971C154.625 135.981 154.751 136.042 154.843 136.143C154.934 136.243 154.983 136.375 154.98 136.511C154.98 137.491 153.32 137.931 151.63 137.931Z" fill="black"/>
<path d="M152.86 132.309H150.4C150.268 132.309 150.141 132.256 150.047 132.162C149.953 132.068 149.9 131.941 149.9 131.809C149.9 131.676 149.953 131.549 150.047 131.455C150.141 131.361 150.268 131.309 150.4 131.309H152.86C152.993 131.309 153.12 131.361 153.214 131.455C153.308 131.549 153.36 131.676 153.36 131.809C153.36 131.941 153.308 132.068 153.214 132.162C153.12 132.256 152.993 132.309 152.86 132.309Z" fill="black"/>
<path d="M151.63 141.25C143.04 141.25 136.08 152.69 136.08 155.71H167.18C167.18 152.69 160.22 141.25 151.63 141.25ZM160.29 149.06H154.51V146.5H160.32L160.29 149.06Z" fill="black"/>
<path d="M64.8404 24.521C64.8822 23.4153 64.4871 22.3376 63.7404 21.521C62.94 20.6889 62.0116 19.99 60.9904 19.451C59.8274 18.8188 58.6288 18.2545 57.4004 17.761C56.1401 17.2479 54.9369 16.6044 53.8104 15.841C52.7219 15.1059 51.7877 14.1649 51.0604 13.071C50.2818 11.8089 49.8987 10.3427 49.9604 8.86104C49.9119 7.77749 50.1131 6.69729 50.5483 5.70379C50.9835 4.71029 51.6411 3.83007 52.4704 3.13104C54.1404 1.71104 56.5204 1.00104 59.6004 1.00104C61.2392 0.986685 62.8758 1.12056 64.4904 1.40104C65.6775 1.57515 66.835 1.91164 67.9304 2.40104L66.8304 5.66104C65.8681 5.22383 64.8626 4.88867 63.8304 4.66104C62.3787 4.34544 60.896 4.19449 59.4104 4.21104C57.8464 4.09099 56.2933 4.55407 55.0504 5.51104C54.5978 5.88305 54.2325 6.34994 53.9802 6.8787C53.7279 7.40747 53.5948 7.98519 53.5904 8.57104C53.5768 9.09666 53.667 9.61981 53.8557 10.1106C54.0445 10.6013 54.3281 11.05 54.6904 11.431C55.5037 12.2338 56.4344 12.9082 57.4504 13.431C58.5504 14.031 59.7404 14.631 61.0404 15.211C62.2957 15.7666 63.4974 16.436 64.6304 17.211C65.7087 17.9706 66.6404 18.9193 67.3804 20.011C68.1457 21.2199 68.529 22.6312 68.4804 24.061C68.4975 25.2877 68.2556 26.5042 67.7704 27.631C67.2991 28.6878 66.5908 29.6219 65.7004 30.361C64.7259 31.1575 63.6048 31.7554 62.4004 32.121C60.9743 32.5522 59.4902 32.7613 58.0004 32.741C56.167 32.7779 54.3353 32.6068 52.5404 32.231C51.3837 31.9903 50.2593 31.6144 49.1904 31.111L50.4404 28.001C51.3977 28.4726 52.4037 28.8381 53.4404 29.091C54.8932 29.4678 56.3897 29.6494 57.8904 29.631C58.8083 29.6339 59.7237 29.5367 60.6204 29.341C61.4053 29.1761 62.1518 28.8639 62.8204 28.421C63.4356 28.0045 63.9484 27.4541 64.3204 26.811C64.6916 26.1065 64.8709 25.3168 64.8404 24.521Z" fill="#414040"/>
<path d="M58.0202 33.8906C56.1058 33.928 54.1935 33.7468 52.3202 33.3506C51.0817 33.0958 49.8793 32.6894 48.7402 32.1406L47.9502 31.7306L49.9502 26.5706L50.9502 27.1206C51.8387 27.5518 52.7706 27.887 53.7302 28.1206C55.0992 28.4686 56.5077 28.6366 57.9202 28.6206C58.7638 28.624 59.6052 28.5368 60.4302 28.3606C61.0897 28.217 61.7169 27.9525 62.2802 27.5806C62.7641 27.2504 63.1647 26.8122 63.4502 26.3006C63.7445 25.751 63.8893 25.1337 63.8702 24.5106C63.9142 23.6563 63.6195 22.8191 63.0502 22.1806C62.3159 21.4278 61.4691 20.7936 60.5402 20.3006C59.4087 19.6857 58.2435 19.1348 57.0502 18.6506C55.7275 18.1166 54.464 17.4464 53.2802 16.6506C52.0988 15.8501 51.0807 14.832 50.2802 13.6506C49.3883 12.2275 48.9458 10.5688 49.0102 8.8906C48.9474 7.6582 49.168 6.42781 49.6552 5.29404C50.1423 4.16027 50.883 3.15331 51.8202 2.3506C53.6802 0.790598 56.3202 0.000598295 59.6002 0.000598295C61.2989 -0.0102686 62.9953 0.126917 64.6702 0.410598C65.9492 0.606327 67.1946 0.979945 68.3702 1.5206L69.1502 1.9006L67.4102 7.0706L66.4102 6.5706C65.5288 6.17675 64.6065 5.88163 63.6602 5.6906C62.2812 5.38763 60.872 5.24336 59.4602 5.2606C58.1469 5.13952 56.8337 5.49441 55.7602 6.2606C55.4129 6.53985 55.1322 6.89295 54.9385 7.29426C54.7448 7.69556 54.6429 8.13498 54.6402 8.5806C54.6273 8.97932 54.6941 9.3766 54.8366 9.74921C54.9791 10.1218 55.1945 10.4622 55.4702 10.7506C56.2043 11.4983 57.0513 12.1259 57.9802 12.6106C59.0502 13.2006 60.2402 13.7906 61.5002 14.3606C62.815 14.9538 64.0706 15.6704 65.2502 16.5006C66.4257 17.3323 67.4419 18.3689 68.2502 19.5606C69.1272 20.9347 69.5698 22.5412 69.5202 24.1706C69.5411 25.5447 69.2719 26.9077 68.7302 28.1706C68.2008 29.3684 67.3996 30.4263 66.3902 31.2606C65.3142 32.1452 64.0737 32.8079 62.7402 33.2106C61.2114 33.6794 59.6192 33.9088 58.0202 33.8906ZM50.4802 30.7306C51.2321 31.0046 52.0002 31.2317 52.7802 31.4106C54.5042 31.7604 56.2613 31.9214 58.0202 31.8906C59.4077 31.9069 60.7898 31.7148 62.1202 31.3206C63.2157 30.9997 64.2359 30.4625 65.1202 29.7406C65.8959 29.1009 66.5122 28.2895 66.9202 27.3706C67.3458 26.3723 67.5571 25.2957 67.5402 24.2106C67.589 22.9801 67.2648 21.7636 66.6102 20.7206C65.9404 19.7272 65.0928 18.8661 64.1102 18.1806C63.0318 17.4082 61.8835 16.7387 60.6802 16.1806C59.3702 15.5906 58.1402 14.9806 57.0302 14.3706C55.9206 13.7831 54.9087 13.0275 54.0302 12.1306C53.1199 11.1757 52.6238 9.89965 52.6502 8.5806C52.6536 7.85358 52.8156 7.13606 53.1247 6.47804C53.4338 5.82002 53.8828 5.23734 54.4402 4.7706C55.8602 3.65782 57.6398 3.10614 59.4402 3.2206C61.0033 3.2045 62.5633 3.36553 64.0902 3.7006C64.814 3.86108 65.5284 4.06138 66.2302 4.3006L66.6802 3.0006C65.9101 2.7354 65.1212 2.52816 64.3202 2.3806C62.761 2.11625 61.1816 1.9891 59.6002 2.0006C56.7802 2.0006 54.6002 2.6306 53.1102 3.8806C52.388 4.48968 51.8177 5.25868 51.4445 6.12659C51.0713 6.9945 50.9055 7.93744 50.9602 8.8806C50.9032 10.1624 51.2267 11.4324 51.8902 12.5306C52.5488 13.507 53.3912 14.3459 54.3702 15.0006C55.4402 15.7247 56.5831 16.3347 57.7802 16.8206C59.0401 17.3349 60.2719 17.9157 61.4702 18.5606C62.5826 19.1518 63.595 19.9145 64.4702 20.8206C65.3949 21.8303 65.8867 23.1623 65.8402 24.5306C65.86 25.5007 65.6256 26.4591 65.1602 27.3106C64.724 28.0824 64.1189 28.7456 63.3902 29.2506C62.6147 29.7727 61.7453 30.1395 60.8302 30.3306C59.8641 30.5388 58.8785 30.6428 57.8902 30.6406C56.3019 30.6592 54.7182 30.4676 53.1802 30.0706C52.4401 29.8772 51.7122 29.6401 51.0002 29.3606L50.4802 30.7306Z" fill="#414040"/>
<path d="M92.7703 18.2212H77.9703V32.3612H74.3203V1.53125H77.9803V15.0013H92.7803V1.53125H96.4203V32.3612H92.7703V18.2212Z" fill="#414040"/>
<path d="M97.4203 33.3613H91.7703V19.2212H78.9703V33.3613H73.3203V0.53125H78.9803V14.0013H91.7803V0.53125H97.4203V33.3613ZM93.7703 31.3612H95.4203V2.53125H93.7703V16.0013H76.9703V2.53125H75.3203V31.3612H76.9803V17.2212H93.7803L93.7703 31.3612Z" fill="#414040"/>
<path d="M102.631 16.9405C102.631 11.8105 103.721 7.86053 105.891 5.12053C108.061 2.38053 111.161 1.00053 115.181 1.00053C117.124 0.949289 119.053 1.34263 120.821 2.15053C122.379 2.88776 123.732 3.99702 124.761 5.38053C125.849 6.88098 126.633 8.57941 127.071 10.3805C127.592 12.5208 127.844 14.7178 127.821 16.9205C127.821 22.0605 126.727 26.0039 124.541 28.7505C122.351 31.4905 119.241 32.8705 115.181 32.8705C113.261 32.9143 111.356 32.521 109.611 31.7205C108.059 30.977 106.713 29.8646 105.691 28.4805C104.599 26.9822 103.814 25.283 103.381 23.4805C102.858 21.3405 102.606 19.1433 102.631 16.9405ZM106.511 16.9405C106.504 18.5704 106.672 20.1963 107.011 21.7905C107.312 23.2007 107.842 24.552 108.581 25.7905C109.253 26.9323 110.194 27.8932 111.321 28.5905C112.496 29.2871 113.845 29.634 115.211 29.5905C116.455 29.6387 117.692 29.3803 118.814 28.838C119.935 28.2957 120.906 27.4861 121.641 26.4805C123.201 24.4072 123.981 21.2139 123.981 16.9005C123.986 15.2801 123.815 13.6639 123.471 12.0805C123.167 10.6694 122.634 9.31788 121.891 8.08053C121.206 6.95318 120.268 6.00124 119.151 5.30053C117.958 4.60293 116.592 4.2563 115.211 4.30053C113.977 4.25316 112.751 4.51138 111.641 5.05222C110.532 5.59306 109.573 6.39974 108.851 7.40053C107.321 9.43053 106.511 12.6305 106.511 16.9405Z" fill="#414040"/>
<path d="M115.18 33.8894C113.111 33.9322 111.06 33.5048 109.18 32.6394C107.491 31.8187 106.023 30.6047 104.9 29.0994C103.732 27.488 102.889 25.6638 102.42 23.7294C101.878 21.5074 101.616 19.2264 101.64 16.9394C101.64 11.5994 102.81 7.40936 105.12 4.49936C107.43 1.58936 110.86 -0.000640535 115.18 -0.000640535C117.271 -0.0458003 119.345 0.377906 121.25 1.23936C122.953 2.05162 124.433 3.26668 125.56 4.77936C126.731 6.39308 127.574 8.22099 128.04 10.1594C128.582 12.3779 128.845 14.6556 128.82 16.9394C128.82 22.2894 127.65 26.4794 125.32 29.3894C122.99 32.2994 119.54 33.8894 115.18 33.8894ZM115.18 1.99936C111.45 1.99936 108.67 3.21936 106.67 5.73936C104.67 8.25936 103.67 12.0594 103.67 16.9394C103.646 19.0612 103.888 21.1777 104.39 23.2394C104.791 24.9211 105.518 26.5077 106.53 27.9094C107.466 29.1566 108.686 30.1614 110.09 30.8394C111.699 31.5714 113.453 31.9304 115.22 31.8894C118.99 31.8894 121.79 30.6594 123.8 28.1494C125.81 25.6394 126.86 21.8294 126.86 16.9394C126.882 14.8215 126.644 12.709 126.15 10.6494C125.729 8.97188 124.985 7.39248 123.96 5.99936C123.026 4.74673 121.801 3.74096 120.39 3.06936C118.756 2.32518 116.975 1.95942 115.18 1.99936ZM115.18 30.6294C113.62 30.6622 112.084 30.2494 110.75 29.4394C109.525 28.6509 108.498 27.59 107.75 26.3394C106.945 24.9966 106.368 23.5302 106.04 21.9994C105.682 20.3367 105.504 18.6402 105.51 16.9394C105.51 12.4294 106.35 8.99936 108.02 6.76936C108.834 5.64145 109.913 4.73123 111.161 4.11907C112.41 3.50691 113.79 3.21165 115.18 3.25936C116.756 3.22252 118.31 3.63528 119.66 4.44936C120.884 5.235 121.911 6.2924 122.66 7.53936C123.48 8.88679 124.061 10.3649 124.38 11.9094C124.734 13.5524 124.912 15.2286 124.91 16.9094C124.91 21.4294 124.05 24.9094 122.37 27.0894C121.55 28.22 120.467 29.1335 119.214 29.7504C117.961 30.3673 116.576 30.669 115.18 30.6294ZM115.18 5.25936C114.099 5.217 113.024 5.44543 112.053 5.92392C111.082 6.40241 110.246 7.11581 109.62 7.99936C108.22 9.88936 107.51 12.9094 107.51 16.9994C107.502 18.5555 107.663 20.108 107.99 21.6294C108.264 22.9427 108.751 24.2026 109.43 25.3594C110.021 26.3514 110.841 27.188 111.82 27.7994C112.829 28.4178 113.997 28.7272 115.18 28.6894C116.269 28.7378 117.354 28.5157 118.336 28.0428C119.319 27.5699 120.169 26.861 120.81 25.9794C122.23 24.0994 122.95 21.0794 122.95 16.9794C122.952 15.4296 122.788 13.8841 122.46 12.3694C122.191 11.0531 121.701 9.79192 121.01 8.63936C120.403 7.64443 119.575 6.80267 118.59 6.17936C117.563 5.5569 116.381 5.23793 115.18 5.25936Z" fill="#414040"/>
<path d="M134.03 1.83969C135.217 1.56291 136.424 1.38563 137.64 1.30969C138.94 1.21969 140.21 1.17969 141.48 1.17969C142.859 1.18243 144.235 1.31299 145.59 1.56969C146.938 1.80749 148.229 2.2923 149.4 2.99969C150.563 3.71563 151.526 4.71303 152.2 5.89969C152.99 7.35491 153.377 8.99483 153.32 10.6497C153.373 12.2903 153.03 13.9195 152.32 15.3997C151.679 16.6431 150.758 17.7212 149.63 18.5497C148.48 19.3751 147.179 19.9663 145.8 20.2897C144.343 20.6435 142.849 20.8215 141.35 20.8197H140.62H139.57L138.49 20.7497C138.239 20.7334 137.988 20.7033 137.74 20.6597V32.3597H134.08L134.03 1.83969ZM141.56 4.34969C140.8 4.34969 140.07 4.34969 139.36 4.34969C138.797 4.35878 138.237 4.4326 137.69 4.56969V17.3797C137.916 17.4556 138.152 17.4927 138.39 17.4897L139.39 17.5397H140.39H141.09C142.097 17.5391 143.102 17.442 144.09 17.2497C145.032 17.0854 145.934 16.7462 146.75 16.2497C147.566 15.7247 148.228 14.9933 148.67 14.1297C149.187 13.0483 149.434 11.8576 149.39 10.6597C149.428 9.61759 149.194 8.58361 148.71 7.65969C148.273 6.87572 147.652 6.20989 146.9 5.71969C146.125 5.23471 145.268 4.89579 144.37 4.71969C143.45 4.49344 142.508 4.36936 141.56 4.34969Z" fill="#414040"/>
<path d="M138.69 33.3616H133.03V1.05163L133.8 0.861628C135.04 0.578971 136.301 0.395062 137.57 0.311628C140.307 0.0454972 143.068 0.139634 145.78 0.591628C147.247 0.865556 148.653 1.40072 149.93 2.17163C151.227 2.98246 152.303 4.10263 153.06 5.43163C153.938 7.02838 154.373 8.83047 154.32 10.6516C154.371 12.4574 153.983 14.2485 153.19 15.8716C152.48 17.2555 151.452 18.4515 150.19 19.3616C148.937 20.2603 147.521 20.9056 146.02 21.2616C144.485 21.6348 142.91 21.8228 141.33 21.8216H140.6H139.5L138.72 21.7716L138.69 33.3616ZM135.03 31.3616H136.69V19.4216L137.89 19.6616C138.098 19.7004 138.309 19.7238 138.52 19.7316L139.52 19.8016H140.52H141.32C142.738 19.803 144.152 19.6351 145.53 19.3016C146.783 19.0084 147.965 18.4716 149.01 17.7216C150.017 16.9904 150.836 16.0308 151.4 14.9216C152.041 13.5849 152.35 12.1132 152.3 10.6316C152.343 9.17352 152.006 7.72935 151.32 6.44163C150.727 5.39633 149.881 4.51624 148.86 3.88163C147.794 3.23244 146.618 2.78499 145.39 2.56163C142.846 2.13963 140.257 2.05557 137.69 2.31163C136.79 2.36506 135.895 2.47865 135.01 2.65163L135.03 31.3616ZM141.12 18.5616H140.42H139.36L138.36 18.5116C138.019 18.5089 137.681 18.4481 137.36 18.3316L136.74 18.0816V3.86163L137.46 3.65163C138.069 3.49953 138.693 3.41238 139.32 3.39163C141.085 3.26283 142.86 3.36029 144.6 3.68163C145.616 3.89639 146.585 4.29274 147.46 4.85163C148.348 5.42803 149.08 6.21463 149.59 7.14163C150.162 8.22093 150.441 9.431 150.4 10.6516C150.446 12.0138 150.158 13.3665 149.56 14.5916C149.035 15.609 148.252 16.471 147.29 17.0916C146.37 17.6616 145.353 18.0581 144.29 18.2616C143.245 18.4615 142.184 18.5619 141.12 18.5616ZM138.69 16.5616H139.45H140.45H141.15C142.083 16.562 143.015 16.4716 143.93 16.2916C144.756 16.1403 145.547 15.835 146.26 15.3916C146.93 14.9652 147.469 14.3634 147.82 13.6516C148.266 12.7167 148.476 11.6865 148.43 10.6516C148.468 9.77502 148.278 8.90361 147.88 8.12163C147.526 7.47726 147.018 6.93091 146.4 6.53163C145.728 6.09976 144.982 5.79472 144.2 5.63163C142.627 5.35131 141.024 5.27067 139.43 5.39163L138.72 5.44163L138.69 16.5616Z" fill="#414040"/>
<path d="M52.7296 144C52.2213 144 51.7721 143.888 51.3822 143.665C50.9922 143.442 50.6893 143.13 50.4735 142.728C50.2576 142.319 50.1497 141.85 50.1497 141.322V138.667C50.1497 138.139 50.2576 137.674 50.4735 137.272C50.6893 136.87 50.9922 136.558 51.3822 136.335C51.7721 136.112 52.2213 136 52.7296 136C53.2449 136 53.6975 136.112 54.0875 136.335C54.4775 136.558 54.7804 136.87 54.9962 137.272C55.2121 137.674 55.32 138.139 55.32 138.667V141.322C55.32 141.85 55.2121 142.319 54.9962 142.728C54.7804 143.13 54.4775 143.442 54.0875 143.665C53.6975 143.888 53.2449 144 52.7296 144ZM52.7296 143.074C53.2031 143.074 53.5861 142.918 53.8786 142.605C54.1711 142.293 54.3173 141.88 54.3173 141.367V138.656C54.3173 138.135 54.1711 137.718 53.8786 137.406C53.5861 137.086 53.2031 136.926 52.7296 136.926C52.2561 136.926 51.8731 137.086 51.5807 137.406C51.2952 137.718 51.1524 138.135 51.1524 138.656V141.367C51.1524 141.88 51.2952 142.293 51.5807 142.605C51.8731 142.918 52.2561 143.074 52.7296 143.074Z" fill="black"/>
<path d="M47.6237 136.201C47.6237 136.127 47.6586 136.09 47.7282 136.09H48.522C48.5917 136.09 48.6265 136.127 48.6265 136.201V143.789C48.6265 143.863 48.5917 143.9 48.522 143.9H47.7595C47.7108 143.9 47.669 143.874 47.6342 143.822L44.3648 138.121C44.3579 138.098 44.3474 138.091 44.3335 138.098C44.3196 138.098 44.3126 138.109 44.3126 138.132L44.3231 143.789C44.3231 143.863 44.2882 143.9 44.2186 143.9H43.4248C43.3551 143.9 43.3203 143.863 43.3203 143.789V136.201C43.3203 136.127 43.3551 136.09 43.4248 136.09H44.1977C44.2465 136.09 44.2882 136.116 44.3231 136.168L47.582 141.869C47.5889 141.892 47.5994 141.903 47.6133 141.903C47.6272 141.896 47.6342 141.881 47.6342 141.858L47.6237 136.201Z" fill="black"/>
</svg>
