<svg width="250" height="250" viewBox="0 0 250 250" fill="none" xmlns="http://www.w3.org/2000/svg">
<circle cx="125" cy="125" r="125" fill="#FFD8D8"/>
<path d="M59.0911 70.5426C59.0911 61.7061 66.2545 54.5426 75.0911 54.5426H175.271C184.108 54.5426 191.271 61.7061 191.271 70.5426V73.2474H59.0911V70.5426Z" fill="#EDF5FB"/>
<path d="M59.0911 73.2482H191.271V76.9421C191.197 76.9474 191.124 76.9632 191.054 76.9892C182.763 76.9892 174.489 76.9757 166.232 76.9488C131.175 76.9488 96.1166 76.9488 61.0559 76.9488C60.4839 76.9488 59.918 76.9488 59.346 76.9488C59.2684 76.9283 59.1894 76.9148 59.1097 76.9084L59.0911 73.2482Z" fill="#D0DEE8"/>
<path d="M72.065 67.6584C71.5465 67.6416 71.0369 67.5196 70.5671 67.2998C70.0973 67.08 69.677 66.767 69.3318 66.3798C68.9866 65.9926 68.7237 65.5394 68.559 65.0475C68.3944 64.5556 68.3314 64.0354 68.3739 63.5184C68.5859 60.9496 70.1384 59.7401 72.4204 59.7214C72.953 59.7201 73.4802 59.8286 73.9691 60.04C74.458 60.2514 74.8981 60.5613 75.2619 60.9503C75.6258 61.3393 75.9056 61.7991 76.0839 62.301C76.2623 62.8029 76.3353 63.3362 76.2985 63.8676C76.2772 64.3971 76.1499 64.917 75.9241 65.3964C75.6982 65.8758 75.3784 66.305 74.9836 66.6585C74.5888 67.012 74.127 67.2827 73.6257 67.4544C73.1243 67.6262 72.5936 67.6956 72.065 67.6584Z" fill="#DF3169"/>
<path d="M83.3505 67.6692C82.8178 67.6893 82.2865 67.602 81.7881 67.4127C81.2897 67.2233 80.8345 66.9358 80.4495 66.567C80.0644 66.1983 79.7575 65.7559 79.5468 65.2662C79.3361 64.7764 79.226 64.2494 79.223 63.7163C79.2568 62.6453 79.7031 61.6289 80.4689 60.8794C81.2346 60.1299 82.2604 59.7055 83.3318 59.6947C84.362 59.7355 85.3365 60.1734 86.0509 60.9167C86.7654 61.66 87.1645 62.651 87.1645 63.682C87.1645 64.713 86.7654 65.7039 86.0509 66.4472C85.3365 67.1905 84.362 67.6284 83.3318 67.6692H83.3505Z" fill="#F29F2C"/>
<path d="M98.1334 63.8276C98.1334 66.147 96.5622 67.6559 94.1929 67.6372C91.8236 67.6185 90.3647 66.0535 90.3085 63.5845C90.2936 63.0643 90.3874 62.5467 90.5838 62.0648C90.7803 61.5829 91.0751 61.1473 91.4495 60.7859C91.8239 60.4244 92.2696 60.145 92.7581 59.9656C93.2465 59.7861 93.7671 59.7106 94.2864 59.7438C96.637 59.7625 98.3142 61.3586 98.1334 63.8276Z" fill="#90C056"/>
<path d="M59.0911 76.9888H191.271V167.452C191.271 182.916 178.735 195.452 163.271 195.452H87.0911C71.6271 195.452 59.0911 182.916 59.0911 167.452V76.9888Z" fill="white"/>
<path d="M143.157 144.937L120.272 155.139L97.5712 145.016V131.171L90.2654 127.755C94.3232 123.803 96.7878 118.953 102.782 117.791C107.914 116.753 112.852 114.79 117.931 113.434C119.45 113.047 121.041 113.047 122.56 113.434C128.062 114.896 133.493 116.638 138.976 118.179C141.404 118.765 143.569 120.135 145.138 122.078C146.581 123.9 148.245 125.546 150.243 127.764L143.157 131.1V144.937ZM119.022 152.498V131.637L113.556 137.024L99.5341 131.743V143.731L119.022 152.498ZM121.46 152.577C128.44 149.145 135.191 146.874 140.913 143.52V131.813L127.058 137.033L121.46 131.752V152.577ZM101.515 120.3L120.325 127.571L138.906 120.291C132.621 118.364 127.217 116.656 121.768 115.08C120.789 114.807 119.754 114.807 118.776 115.08C113.327 116.665 107.949 118.355 101.515 120.3ZM93.4958 127.21L113.23 134.894L118.415 128.917L98.7859 121.409L93.4958 127.21ZM127.358 134.894L146.986 127.166L141.573 121.383L122.076 128.979L127.358 134.894Z" fill="#EF5A5A"/>
<path d="M120.483 108.875C118.899 105.301 118.846 97.1325 120.113 93.8229C121.548 96.0411 121.83 103.628 120.483 108.875Z" fill="#EF5A5A"/>
<path d="M93.2402 105.169C97.0516 107.096 99.657 110.309 102.923 113.425C102.042 113.786 101.347 114.305 101.162 114.138C98.143 111.55 95.1855 108.848 93.2402 105.169Z" fill="#EF5A5A"/>
<path d="M147.682 104.651C145.763 108.85 140.939 113.383 138.343 113.814C139.637 110.953 143.712 106.834 147.682 104.651Z" fill="#EF5A5A"/>
<path d="M111.47 110.045C108.45 106.991 107.324 104.139 107.588 100.363C109.743 103.175 111.086 106.524 111.47 110.045Z" fill="#EF5A5A"/>
<path d="M128.731 110.505C129.231 106.928 130.637 103.538 132.815 100.656C133.414 103.957 131.794 107.865 128.731 110.505Z" fill="#EF5A5A"/>
<path d="M119.023 152.498L99.5347 143.775V131.751L113.556 137.032L119.023 131.645V152.498Z" fill="white"/>
<path d="M121.461 152.543V131.752L127.059 137.033L140.913 131.814V143.52C135.236 146.839 128.441 149.11 121.461 152.543Z" fill="white"/>
<path d="M101.515 120.3C107.914 118.354 113.328 116.664 118.776 115.098C119.755 114.825 120.79 114.825 121.769 115.098C127.217 116.673 132.622 118.381 138.907 120.309L120.325 127.588L101.515 120.3Z" fill="white"/>
<path d="M93.4955 127.213L98.7768 121.421L118.405 128.929L113.23 134.897L93.4955 127.213Z" fill="white"/>
<path d="M127.358 134.891L122.076 128.976L141.573 121.38L146.986 127.163L127.358 134.891Z" fill="white"/>
<circle cx="153.861" cy="112.524" r="14.9638" fill="#EBEBEB"/>
<path d="M154.149 119.174C151.077 119.174 149.257 116.6 149.257 112.516C149.257 108.459 151.095 105.884 154.149 105.884C157.212 105.884 159.023 108.45 159.023 112.507C159.023 116.591 157.221 119.174 154.149 119.174ZM154.149 117.505C155.978 117.505 157.017 115.614 157.017 112.516C157.017 109.462 155.96 107.553 154.149 107.553C152.338 107.553 151.273 109.471 151.273 112.516C151.273 115.605 152.32 117.505 154.149 117.505Z" fill="#EF5A5A"/>
</svg>
