<!--
  - Copyright (c) 2023 Groupado.
  - All rights reserved.
  - Redistribution and use in source and binary forms, with or without modification, are not permitted.
  -->

<svg width="376" height="420" viewBox="0 0 376 420" fill="none" xmlns="http://www.w3.org/2000/svg">
    <ellipse cx="187.939" cy="104.704" rx="20.9237" ry="20.9407" fill="#EF5A5A"/>
    <path d="M294.65 26.0698C294.65 37.1155 285.696 46.0698 274.65 46.0698L191.2 46.0698C180.154 46.0698 171.2 37.1155 171.2 26.0698L171.2 20.0004C171.2 8.95466 180.154 0.000344749 191.2 0.000345716L294.65 0.000354767L294.65 26.0698Z" fill="#03174C"/>
    <path fill-rule="evenodd" clip-rule="evenodd" d="M188.67 210.871C246.854 210.871 294.021 163.666 294.021 105.436C294.021 47.2051 246.854 0 188.67 0C130.487 0 83.3201 47.2051 83.3201 105.436C83.3201 163.666 130.487 210.871 188.67 210.871ZM188.671 164.011C220.995 164.011 247.198 137.786 247.198 105.436C247.198 73.0854 220.995 46.8604 188.671 46.8604C156.346 46.8604 130.143 73.0854 130.143 105.436C130.143 137.786 156.346 164.011 188.671 164.011Z" fill="#03174C"/>
    <path d="M187.705 277.955C216.708 277.955 241.877 261.75 254.427 238.011L222.48 224.065C216.276 236.145 203.576 244.424 188.918 244.424C174.26 244.424 161.56 236.145 155.356 224.065L120.983 238.011C133.533 261.75 158.702 277.955 187.705 277.955Z" fill="#03174C"/>
    <path d="M30.7589 386.293V395.336H53.5771C51.204 404.014 42.8982 409.861 32.6756 409.861C19.5324 409.861 10.6789 400.36 10.6789 386.841C10.6789 373.322 19.8062 363.822 32.6756 363.822C42.3505 363.822 50.4738 369.211 53.212 377.432H63.9822C61.1527 363.456 48.1007 353.682 32.4931 353.682C13.7822 353.682 0 367.75 0 386.841C0 405.933 13.8734 420 32.6756 420C51.4778 420 64.7123 405.933 64.9862 386.293H30.7589Z" fill="#03174C"/>
    <path d="M117.272 369.394L116.085 375.606C111.613 370.947 105.315 368.206 98.0133 368.206C83.3184 368.206 72.3657 379.259 72.3657 394.058C72.3657 408.856 83.3184 420 98.0133 420C105.224 420 111.43 417.26 115.903 412.784L116.907 418.721H125.03V369.394H117.272ZM98.8348 410.226C89.5249 410.226 82.6795 403.284 82.6795 394.058C82.6795 384.832 89.5249 377.889 98.8348 377.889C108.145 377.889 114.899 384.74 114.899 394.058C114.899 403.375 108.145 410.226 98.8348 410.226Z" fill="#03174C"/>
    <path d="M139.569 418.721H149.7V351.764H139.569V418.721Z" fill="#03174C"/>
    <path d="M210.903 394.24C210.903 379.899 200.863 368.206 185.712 368.206C171.291 368.206 160.43 379.351 160.43 394.058C160.43 408.856 171.291 420 185.712 420C196.756 420 205.792 413.606 209.717 403.192H199.038C196.391 407.76 191.645 410.5 185.712 410.5C177.68 410.5 171.93 405.567 170.652 397.529H210.63C210.812 396.433 210.903 395.336 210.903 394.24ZM185.712 377.432C193.288 377.432 198.855 381.817 200.681 389.308H170.926C172.569 382 178.136 377.432 185.712 377.432Z" fill="#03174C"/>
    <path d="M245.3 369.12C238.546 369.12 233.709 371.495 230.149 376.154L228.506 369.394H221.661V418.721H231.792V392.505C231.792 383.553 235.899 378.711 244.296 378.711H249.681V369.12H245.3Z" fill="#03174C"/>
    <path d="M257.581 418.721H267.713V369.394H257.581V418.721Z" fill="#03174C"/>
    <path d="M328.916 394.24C328.916 379.899 318.876 368.206 303.725 368.206C289.304 368.206 278.442 379.351 278.442 394.058C278.442 408.856 289.304 420 303.725 420C314.769 420 323.805 413.606 327.73 403.192H317.051C314.404 407.76 309.658 410.5 303.725 410.5C295.693 410.5 289.943 405.567 288.665 397.529H328.642C328.825 396.433 328.916 395.336 328.916 394.24ZM303.725 377.432C311.3 377.432 316.868 381.817 318.694 389.308H288.939C290.582 382 296.149 377.432 303.725 377.432Z" fill="#03174C"/>
    <path d="M356.011 420C368.059 420 376 413.788 376 404.197C376 392.048 365.869 390.404 357.563 389.034C351.63 388.029 346.61 387.207 346.61 382.822C346.61 379.259 350.079 376.793 355.646 376.793C361.579 376.793 365.23 379.351 365.412 384.009H374.996C374.813 374.509 367.329 368.206 355.92 368.206C344.42 368.206 336.844 374.327 336.844 383.187C336.844 394.606 346.519 396.433 354.733 397.894C360.757 398.899 366.051 399.904 366.051 404.654C366.051 408.764 361.853 411.048 356.376 411.048C350.444 411.048 346.063 408.308 345.789 403.101H335.931C336.205 413.332 344.055 420 356.011 420Z" fill="#03174C"/>
    <path d="M257.896 348.441C257.896 351.18 260.116 353.404 262.855 353.404C265.594 353.404 267.815 351.18 267.815 348.441C267.815 345.702 265.594 343.477 262.855 343.477C260.116 343.477 257.896 345.702 257.896 348.441Z" fill="#EF5A5A"/>
    <path d="M282.287 348.558V326.277H276.426V354.064H297.249V348.558H282.287Z" fill="#EF5A5A"/>
    <path d="M302.423 354.064H308.13V326.277H302.423V354.064Z" fill="#EF5A5A"/>
    <path d="M335.203 326.277L327.079 346.912L318.75 326.277H312.734L324.457 354.064H329.65L341.064 326.277H335.203Z" fill="#EF5A5A"/>
    <path d="M371.377 340.274C371.377 332.195 365.721 325.609 357.186 325.609C349.063 325.609 342.944 331.886 342.944 340.171C342.944 348.507 349.063 354.784 357.186 354.784C363.407 354.784 368.497 351.182 370.708 345.316H364.693C363.202 347.889 360.528 349.433 357.186 349.433C352.662 349.433 349.422 346.654 348.703 342.126H371.222C371.325 341.509 371.377 340.891 371.377 340.274ZM357.186 330.806C361.454 330.806 364.59 333.276 365.618 337.495H348.857C349.782 333.379 352.919 330.806 357.186 330.806Z" fill="#EF5A5A"/>
</svg>
